<svg width="21" height="24" viewBox="0 0 21 24" fill="none" xmlns="http://www.w3.org/2000/svg">
<g clip-path="url(#clip0_1060_10254)">
<path d="M10.504 6.69118C13.2151 6.69118 15.9262 6.69118 18.6482 6.69118C19.7851 6.69118 20.0256 6.90672 20.0256 7.87197C20.0256 11.8642 19.971 15.8657 20.0475 19.8579C20.0912 22.1726 17.9704 24.0563 15.2047 24C12.0345 23.9344 8.86425 23.9907 5.69403 23.9813C2.92828 23.9907 0.993354 22.3319 0.982422 19.961C0.982422 15.8845 0.982422 11.8079 0.982422 7.7314C0.982422 6.95357 1.27758 6.69118 2.19585 6.69118C4.9616 6.68181 7.72735 6.69118 10.504 6.69118ZM8.23021 15.3222C8.23021 14.1226 8.23021 12.9137 8.23021 11.7142C8.23021 10.9926 7.82573 10.5897 7.11517 10.5803C6.39367 10.5709 5.9236 11.002 5.9236 11.7142C5.91267 14.132 5.9236 16.5498 5.9236 18.977C5.9236 19.6799 6.41553 20.1484 7.11517 20.1297C7.78201 20.1109 8.23021 19.6611 8.23021 18.977C8.23021 17.7587 8.23021 16.5405 8.23021 15.3222ZM12.7778 15.3128C12.7778 16.5311 12.7778 17.7494 12.7778 18.9676C12.7778 19.6517 13.2151 20.1016 13.8929 20.1203C14.5816 20.139 15.0845 19.6705 15.0845 18.9676C15.0954 16.5498 15.0845 14.132 15.0845 11.7048C15.0845 10.9926 14.6253 10.5615 13.8929 10.5709C13.1823 10.5803 12.7778 10.9833 12.7778 11.7048C12.7778 12.9137 12.7778 14.1133 12.7778 15.3128Z" fill="#7A7A7A"/>
<path d="M6.90845 1.24639C7.10523 0.178055 7.35666 0 8.53729 0C9.84911 0 11.1609 0 12.4727 0C13.6534 0 13.9048 0.178055 14.0907 1.21827C14.2874 1.22765 14.4951 1.23702 14.7028 1.24639C15.9928 1.26513 17.2937 1.22765 18.5727 1.31199C19.8954 1.4057 20.934 2.43655 20.9777 3.56111C20.9996 4.09527 20.9777 4.62007 20.9886 5.15424C20.9886 5.53846 20.7591 5.72589 20.3327 5.76337C20.1687 5.77274 20.0048 5.77274 19.8408 5.77274C13.6097 5.77274 7.37852 5.77274 1.14739 5.77274C0.108871 5.77274 0.0104848 5.67903 0.0104848 4.77938C0.0104848 4.29207 -0.0332424 3.80476 0.0432803 3.32683C0.261916 2.07107 1.44255 1.26513 3.01673 1.23702C4.10991 1.22765 5.20309 1.23702 6.29627 1.23702C6.49305 1.24639 6.68982 1.24639 6.90845 1.24639Z" fill="#7A7A7A"/>
</g>
<defs>
<clipPath id="clip0_1060_10254">
<rect width="21" height="24" fill="white"/>
</clipPath>
</defs>
</svg>
