<svg width="48" height="48" viewBox="0 0 48 48" fill="none" xmlns="http://www.w3.org/2000/svg">
<rect width="48" height="48" rx="24" fill="#E4F4FF"/>
<path d="M18.683 26.3439C18.683 24.6002 18.6799 22.8596 18.683 21.1158C18.6862 19.9283 19.4112 19.0002 20.5362 18.7471C20.7299 18.7033 20.9362 18.6877 21.1362 18.6877C24.608 18.6846 28.0799 18.6846 31.5518 18.6846C32.9861 18.6846 34.0018 19.7033 34.0018 21.1346C34.0018 24.6064 34.0018 28.0783 34.0018 31.5502C34.0018 32.9845 32.983 34.0002 31.5486 34.0002C28.0768 34.0002 24.6049 34.0002 21.133 34.0002C19.7018 34.0002 18.683 32.9845 18.683 31.547C18.6799 29.8158 18.683 28.0814 18.683 26.3439ZM20.2518 26.3439C20.2518 28.0721 20.2518 29.8002 20.2518 31.5314C20.2518 32.147 20.5393 32.4345 21.1549 32.4345C24.6111 32.4345 28.0705 32.4345 31.5268 32.4345C32.1424 32.4345 32.4299 32.147 32.4299 31.5314C32.4299 28.0752 32.4299 24.6158 32.4299 21.1596C32.4299 20.5439 32.1424 20.2564 31.5268 20.2564C28.0705 20.2564 24.6111 20.2564 21.1549 20.2564C20.5393 20.2564 20.2518 20.5439 20.2518 21.1596C20.2518 22.8877 20.2518 24.6158 20.2518 26.3439Z" fill="#0AA8FF"/>
<path d="M29.2857 17.0782C28.7857 17.0782 28.2826 17.0782 27.7514 17.0782C27.7514 16.8563 27.7514 16.6375 27.7514 16.4188C27.7482 15.8844 27.4264 15.5594 26.8951 15.5594C23.4014 15.5594 19.9108 15.5594 16.417 15.5594C15.8826 15.5594 15.5576 15.8813 15.5576 16.4125C15.5576 19.9063 15.5576 23.3969 15.5576 26.8906C15.5576 27.425 15.8826 27.7469 16.4108 27.75C16.6389 27.75 16.867 27.75 17.1108 27.75C17.1108 28.2688 17.1108 28.7781 17.1108 29.2875C16.1639 29.375 15.2733 29.2938 14.592 28.5219C14.2201 28.1031 14.0076 27.6125 14.0045 27.0469C14.0014 25.2125 14.0014 23.3719 14.0014 21.5313C14.0014 19.8219 13.9983 18.1157 14.0014 16.4063C14.0045 15.1719 14.7858 14.2375 15.9889 14.0313C16.1389 14.0063 16.2951 14.0063 16.4483 14.0063C19.9201 14.0063 23.392 14.0188 26.8639 14C28.1076 13.9938 29.1264 14.8532 29.2826 16.0157C29.3264 16.3594 29.2857 16.7188 29.2857 17.0782Z" fill="#0AA8FF"/>
</svg>
