<svg width="48" height="48" viewBox="0 0 48 48" fill="none" xmlns="http://www.w3.org/2000/svg">
<rect width="48" height="48" rx="24" fill="#EAF7ED"/>
<path d="M15.8064 34.9997C15.14 34.7653 15 34.3551 15 33.7887C15.0133 28.8539 15.0067 23.9126 15 18.9778C15 18.5547 15.1333 18.2226 15.4465 17.9427C15.8464 17.5846 16.2196 17.207 16.6061 16.8359C16.6395 16.9466 16.6994 17.0508 16.6994 17.1615C16.7061 23.1053 16.7061 29.0492 16.7061 34.9997C16.4062 34.9997 16.1063 34.9997 15.8064 34.9997Z" fill="#2FB44B"/>
<path d="M31.5469 17.9206C32.26 17.6081 32.9931 18.0508 32.9931 18.8125C32.9931 23.871 32.9931 28.923 32.9931 33.9815C32.9931 34.4046 32.7998 34.7236 32.3933 34.8994C32.3266 34.9255 32.26 34.9645 32.2 34.9971C31.9801 34.9971 31.7668 34.9971 31.5469 34.9971C31.5469 29.3071 31.5469 23.6106 31.5469 17.9206Z" fill="#2FB44B"/>
<path d="M16.7054 34.999C16.7054 29.0551 16.7054 23.1112 16.6988 17.1608C16.6988 17.0501 16.6388 16.9394 16.6055 16.8353C17.0187 16.4251 17.4385 16.0215 17.8517 15.6113C17.8717 15.9499 17.8984 16.2884 17.8984 16.6269C17.905 17.6686 17.8984 18.7167 17.8984 19.7584C17.6118 19.7584 17.3186 19.7584 17.012 19.7584C17.012 24.1919 17.012 28.5994 17.012 33.0524C17.4185 33.0524 17.8317 33.0524 18.2449 33.0524C18.2449 33.7034 18.2449 34.3479 18.2449 34.999C17.7384 34.999 17.2186 34.999 16.7054 34.999Z" fill="#2FB44B"/>
<path d="M31.5482 17.9238C31.5482 23.6138 31.5482 29.3103 31.5482 35.0003C31.095 35.0003 30.6485 35.0003 30.1953 35.0003C30.1953 34.3493 30.1953 33.7048 30.1953 33.0537C30.4486 33.0537 30.7085 33.0537 30.995 33.0537C30.995 32.917 30.995 32.8129 30.995 32.7152C30.995 28.0929 30.995 23.4771 30.9884 18.8548C30.995 18.4186 31.175 18.1256 31.5482 17.9238Z" fill="#2FB44B"/>
<path d="M33.047 13.8997C33.027 14.1861 33.0337 14.4791 32.9937 14.759C32.9604 14.9869 32.9271 15.2343 32.8071 15.4231C32.5939 15.7486 32.2606 15.9113 31.8474 15.8462C31.8341 15.7291 31.8008 15.6054 31.8008 15.4882C31.8008 13.6588 31.8008 11.8294 31.8008 10C31.9341 10 32.0674 10 32.2006 10C32.7072 10.1693 32.9937 10.4948 33.0004 11.0286C33.0004 11.263 32.9937 11.4974 33.0004 11.7317C33.0004 11.8099 33.0337 11.8815 33.047 11.9596C33.047 12.6041 33.047 13.2551 33.047 13.8997Z" fill="#2FB44B"/>
<path d="M31.8004 10C31.8004 11.8294 31.8004 13.6588 31.8004 15.4882C31.8004 15.6054 31.8337 15.7291 31.8471 15.8462C31.4339 15.8137 31.0073 15.397 31.0007 14.9934C30.994 14.6418 31.0007 14.2968 31.0007 13.9192C30.8741 13.9127 30.7608 13.8997 30.6475 13.8932C30.6475 13.2486 30.6475 12.5976 30.6475 11.9531C30.7541 11.9466 30.8607 11.9401 30.994 11.9336C30.994 11.6731 31.014 11.4258 30.9873 11.1784C30.934 10.5989 31.2206 10.2279 31.7471 10C31.7671 10 31.7804 10 31.8004 10Z" fill="#2FB44B"/>
<path d="M18.2524 34.9983C18.2524 34.3473 18.2524 33.7028 18.2524 33.0518C18.7723 33.0518 19.2854 33.0518 19.8053 33.0518C19.8053 33.7028 19.8053 34.3473 19.8053 34.9983C19.2854 34.9983 18.7723 34.9983 18.2524 34.9983Z" fill="#2FB44B"/>
<path d="M21.1045 33.0518C21.571 33.0518 22.0375 33.0518 22.504 33.0518C22.504 33.7028 22.504 34.3473 22.504 34.9983C22.0375 34.9983 21.571 34.9983 21.1045 34.9983C21.1045 34.3473 21.1045 33.7028 21.1045 33.0518Z" fill="#2FB44B"/>
<path d="M30.2015 33.0518C30.2015 33.7028 30.2015 34.3473 30.2015 34.9983C29.7483 34.9983 29.3018 34.9983 28.8486 34.9983C28.8486 34.3473 28.8486 33.7028 28.8486 33.0518C29.3018 33.0518 29.7483 33.0518 30.2015 33.0518Z" fill="#2FB44B"/>
<path d="M21.1047 33.0518C21.1047 33.7028 21.1047 34.3473 21.1047 34.9983C20.6716 34.9983 20.2384 34.9983 19.8052 34.9983C19.8052 34.3473 19.8052 33.7028 19.8052 33.0518C20.2384 33.0518 20.6716 33.0518 21.1047 33.0518Z" fill="#2FB44B"/>
<path d="M24.9502 33.0518C25.3834 33.0518 25.8166 33.0518 26.2498 33.0518C26.2498 33.7028 26.2498 34.3473 26.2498 34.9983C25.8166 34.9983 25.3834 34.9983 24.9502 34.9983C24.9502 34.3473 24.9502 33.7028 24.9502 33.0518Z" fill="#2FB44B"/>
<path d="M26.25 34.9983C26.25 34.3473 26.25 33.7028 26.25 33.0518C26.6832 33.0518 27.1164 33.0518 27.5496 33.0518C27.5496 33.7028 27.5496 34.3473 27.5496 34.9983C27.1164 34.9983 26.6832 34.9983 26.25 34.9983Z" fill="#2FB44B"/>
<path d="M27.5493 34.9983C27.5493 34.3473 27.5493 33.7028 27.5493 33.0518C27.9825 33.0518 28.4157 33.0518 28.8489 33.0518C28.8489 33.7028 28.8489 34.3473 28.8489 34.9983C28.4157 34.9983 27.9825 34.9983 27.5493 34.9983Z" fill="#2FB44B"/>
<path d="M24.9512 33.0518C24.9512 33.7028 24.9512 34.3473 24.9512 34.9983C24.5313 34.9983 24.1181 34.9983 23.6982 34.9983C23.6982 34.3473 23.6982 33.7028 23.6982 33.0518C24.1181 33.0518 24.538 33.0518 24.9512 33.0518Z" fill="#2FB44B"/>
<path d="M23.7025 33.0518C23.7025 33.7028 23.7025 34.3473 23.7025 34.9983C23.3027 34.9983 22.9028 34.9983 22.5029 34.9983C22.5029 34.3473 22.5029 33.7028 22.5029 33.0518C22.9028 33.0518 23.3027 33.0518 23.7025 33.0518Z" fill="#2FB44B"/>
<path d="M22.0045 19.7573C21.538 19.7573 21.0715 19.7573 20.605 19.7573C20.605 19.1128 20.605 18.4618 20.605 17.8173C20.7316 17.8108 20.8582 17.8042 20.9915 17.7977C20.9915 16.9644 20.9915 16.1637 20.9915 15.3434C20.9315 15.3759 20.8916 15.3954 20.8516 15.4215C20.8182 15.3434 20.7583 15.2652 20.7583 15.1806C20.7516 14.5231 20.7583 13.872 20.7516 13.2145C20.7516 13.0843 20.7183 12.9606 20.7049 12.8304C20.9182 12.6155 21.1115 12.3747 21.3514 12.1989C21.518 12.0752 21.7513 12.0361 21.9579 11.958C21.9579 14.4319 21.9579 16.8993 21.9579 19.3732C21.9579 19.5034 21.9845 19.6271 22.0045 19.7573Z" fill="#2FB44B"/>
<path d="M22.0037 19.7573C21.9904 19.6271 21.957 19.5034 21.957 19.3732C21.957 16.8993 21.957 14.4319 21.957 11.958C22.4235 11.958 22.8901 11.958 23.3566 11.958C23.3566 12.6025 23.3566 13.2536 23.3566 13.8981C23.2499 13.9046 23.1433 13.9111 23.0034 13.9176C23.0034 14.0218 23.0034 14.1194 23.0034 14.2106C23.0034 15.721 23.0034 17.2313 23.0034 18.7417C23.0034 19.3407 22.6035 19.7378 22.0037 19.7573Z" fill="#2FB44B"/>
<path d="M17.9055 19.7606C17.9055 18.719 17.9122 17.6708 17.9055 16.6292C17.9055 16.2907 17.8722 15.9521 17.8589 15.6136C18.1388 15.3467 18.4187 15.0797 18.6986 14.8193C18.7186 15.0537 18.7519 15.2816 18.7519 15.5159C18.7586 16.1539 18.7586 16.792 18.7586 17.43C18.672 17.5471 18.5786 17.6708 18.472 17.8206C18.6853 17.8206 18.8719 17.8206 19.0585 17.8206C19.0585 18.4651 19.0585 19.1161 19.0585 19.7606C18.672 19.7606 18.2854 19.7606 17.9055 19.7606Z" fill="#2FB44B"/>
<path d="M25.0029 11.958C25.4228 11.971 25.8493 11.945 26.2625 12.0101C26.7357 12.0817 27.0489 12.557 27.0023 13.0192C26.949 13.5075 26.5491 13.8981 26.0759 13.9046C25.7227 13.9111 25.3628 13.9046 25.0029 13.8981C25.0029 13.2536 25.0029 12.6025 25.0029 11.958Z" fill="#2FB44B"/>
<path d="M33.0474 13.8981C33.0474 13.2536 33.0474 12.6025 33.0474 11.958C33.4806 11.984 33.9271 11.9645 34.3536 12.0426C34.7668 12.1208 35.0467 12.6221 34.9934 13.0257C34.9334 13.4749 34.5069 13.8916 34.067 13.9046C33.7338 13.9111 33.3939 13.8981 33.0474 13.8981Z" fill="#2FB44B"/>
<path d="M25.0034 11.958C25.0034 12.6025 25.0034 13.2536 25.0034 13.8981C24.4502 13.8981 23.9037 13.8981 23.3506 13.8981C23.3506 13.2536 23.3506 12.6025 23.3506 11.958C23.9037 11.958 24.4502 11.958 25.0034 11.958Z" fill="#2FB44B"/>
<path d="M20.7047 12.832C20.718 12.9622 20.7514 13.0859 20.7514 13.2161C20.758 13.8737 20.7514 14.5247 20.758 15.1822C20.758 15.2604 20.818 15.3385 20.8513 15.4231C20.4381 15.8203 20.0249 16.2174 19.6117 16.608C19.5917 15.7226 19.5718 14.8437 19.5518 13.9583C19.9383 13.5807 20.3182 13.2096 20.7047 12.832Z" fill="#2FB44B"/>
<path d="M19.0527 19.7574C19.0527 19.1129 19.0527 18.4619 19.0527 17.8174C19.5726 17.8174 20.0857 17.8174 20.6056 17.8174C20.6056 18.4619 20.6056 19.1129 20.6056 19.7574C20.0857 19.7574 19.5726 19.7574 19.0527 19.7574Z" fill="#2FB44B"/>
<path d="M30.6485 11.9599C30.6485 12.6044 30.6485 13.2554 30.6485 13.9C30.4219 13.9 30.202 13.9065 29.9754 13.9065C29.4622 13.9065 29.0024 13.4768 28.9957 13.008C28.989 12.4156 29.3889 11.9729 29.9487 11.9599C30.1886 11.9469 30.4219 11.9599 30.6485 11.9599Z" fill="#2FB44B"/>
<path d="M19.5516 13.96C19.5716 14.8454 19.5916 15.7242 19.6116 16.6096C19.325 16.8831 19.0384 17.1565 18.7519 17.4299C18.7519 16.7919 18.7585 16.1539 18.7452 15.5159C18.7452 15.2815 18.7119 15.0537 18.6919 14.8193C18.9851 14.5329 19.2717 14.2464 19.5516 13.96Z" fill="#2FB44B"/>
</svg>
