<svg width="48" height="48" viewBox="0 0 48 48" fill="none" xmlns="http://www.w3.org/2000/svg">
<rect width="48" height="48" rx="24" fill="#FDC7C4"/>
<path d="M33.9961 23.2599C33.9961 23.7676 33.9961 24.2753 33.9961 24.7831C33.9648 24.9705 33.9336 25.1619 33.9063 25.3493C33.6173 27.3607 32.8127 29.1338 31.4536 30.6452C29.8485 32.43 27.8567 33.5196 25.4782 33.8867C25.2322 33.9258 24.9861 33.9609 24.7362 34C24.2285 34 23.7208 34 23.213 34C23.1662 33.9844 23.1193 33.9688 23.0724 33.9609C22.6936 33.9024 22.3109 33.8633 21.9359 33.7852C20.0223 33.379 18.3663 32.4886 16.9799 31.1138C15.406 29.5556 14.4452 27.677 14.1094 25.486C14.0742 25.2517 14.0391 25.0174 14 24.7831C14 24.248 14 23.7169 14 23.1818C14.043 22.9162 14.082 22.6507 14.1289 22.3851C14.4804 20.3269 15.3747 18.5382 16.8315 17.0424C18.3976 15.4333 20.2956 14.4569 22.514 14.1133C22.7483 14.0781 22.9826 14.0391 23.2169 14C23.7247 14 24.2324 14 24.7401 14C24.7752 14.0117 24.8065 14.0312 24.8416 14.0351C26.3765 14.164 27.8137 14.6093 29.122 15.4216C31.7817 17.0697 33.3829 19.4364 33.8867 22.5374C33.9258 22.7795 33.9609 23.0178 33.9961 23.2599ZM22.8147 23.998C22.7561 24.0605 22.7131 24.1074 22.6702 24.1543C22.2289 24.5956 21.7875 25.0369 21.3462 25.4782C21.0025 25.8219 20.651 26.1656 20.3113 26.5171C20.0691 26.7709 20.0066 27.0756 20.1355 27.3997C20.2644 27.7278 20.5183 27.9035 20.8698 27.9231C21.147 27.9426 21.3697 27.8176 21.561 27.6223C22.3226 26.8569 23.0881 26.0953 23.8535 25.3298C23.9004 25.283 23.9551 25.2361 24.0098 25.1853C24.455 25.6305 24.8807 26.0601 25.3103 26.4858C25.7047 26.8803 26.0992 27.2787 26.4976 27.6731C26.7553 27.9231 27.0599 27.9973 27.3958 27.8684C27.7239 27.7434 27.8996 27.4896 27.9231 27.1381C27.9426 26.8608 27.8215 26.6382 27.6262 26.4468C26.8608 25.6852 26.0992 24.9197 25.3337 24.1543C25.2869 24.1074 25.24 24.0527 25.1853 23.998C25.5954 23.588 25.9938 23.1935 26.3882 22.7991C26.8178 22.3695 27.2474 21.9477 27.6692 21.5142C28.0324 21.1392 28.0051 20.5886 27.6223 20.2722C27.2865 19.991 26.81 20.0223 26.4741 20.3542C25.6969 21.1236 24.9276 21.9008 24.1543 22.6741C24.1035 22.7249 24.0527 22.7678 23.9902 22.8303C23.7676 22.6038 23.5606 22.389 23.3497 22.1742C22.7327 21.5571 22.1195 20.9361 21.4985 20.3269C21.2212 20.0535 20.8307 20.0066 20.5104 20.1824C20.1824 20.362 20.0027 20.7252 20.1043 21.0924C20.1511 21.2642 20.2644 21.436 20.3894 21.5649C21.1822 22.3734 21.9945 23.174 22.8147 23.998Z" fill="#F34336"/>
<path d="M22.8149 23.9986C21.9909 23.1784 21.1824 22.3778 20.3857 21.5616C20.2607 21.4327 20.1475 21.2608 20.1006 21.089C19.9991 20.7258 20.1787 20.3587 20.5068 20.179C20.827 20.0033 21.2176 20.0501 21.4949 20.3235C22.1159 20.9367 22.729 21.5537 23.3461 22.1708C23.557 22.3817 23.764 22.5965 23.9866 22.8269C24.053 22.7644 24.1037 22.7176 24.1506 22.6707C24.9239 21.8974 25.6972 21.1241 26.4705 20.3509C26.8063 20.0189 27.2789 19.9876 27.6187 20.2688C28.0014 20.5891 28.0288 21.1398 27.6656 21.5108C27.2438 21.9443 26.8102 22.37 26.3846 22.7957C25.9901 23.1901 25.5917 23.5846 25.1817 23.9947C25.2363 24.0533 25.2793 24.104 25.3301 24.1509C26.0955 24.9164 26.8571 25.6818 27.6226 26.4434C27.8179 26.6348 27.9389 26.8574 27.9194 27.1347C27.896 27.4862 27.7202 27.74 27.3922 27.865C27.0563 27.9939 26.7478 27.9236 26.4939 27.6697C26.0955 27.2792 25.7011 26.8808 25.3066 26.4825C24.8809 26.0529 24.4513 25.6272 24.0061 25.1819C23.9514 25.2327 23.8968 25.2796 23.8499 25.3264C23.0844 26.088 22.3189 26.8535 21.5574 27.619C21.366 27.8142 21.1434 27.9353 20.8661 27.9197C20.5146 27.8963 20.2607 27.7205 20.1319 27.3964C20.003 27.0722 20.0655 26.7637 20.3076 26.5137C20.6474 26.1622 20.995 25.8224 21.3426 25.4749C21.7839 25.0335 22.2252 24.5922 22.6665 24.1509C22.7134 24.1079 22.7564 24.0611 22.8149 23.9986Z" fill="#F9F7F7" fill-opacity="0.7"/>
</svg>
