<svg width="48" height="48" viewBox="0 0 48 48" fill="none" xmlns="http://www.w3.org/2000/svg">
<rect width="48" height="48" rx="24" fill="#F1DBFF"/>
<path d="M13 19.352C13.1078 18.9523 13.2276 18.5585 13.4971 18.2245C13.9523 17.6637 14.5393 17.3058 15.2641 17.3058C18.3187 17.2879 21.3794 17.2998 24.4341 17.2998C24.4581 17.2998 24.476 17.3058 24.5 17.3058C24.5 17.7532 24.5 18.1946 24.5 18.6421C21.4812 18.6421 18.4685 18.6421 15.4497 18.6421C14.7789 18.6421 14.3477 19.0776 14.3477 19.7517C14.3477 22.5854 14.3596 25.4191 14.3417 28.2527C14.3357 28.903 14.8388 29.3922 15.4737 29.3922C18.4805 29.3803 21.4932 29.3862 24.5 29.3862C24.5 29.8336 24.5 30.2751 24.5 30.7225C23.344 30.7225 22.182 30.7285 21.026 30.7285C19.1872 30.7285 17.3484 30.7046 15.5096 30.7345C14.2758 30.7524 13.1857 29.8635 13.0359 28.724C13.0359 28.7061 13.012 28.6882 13 28.6703C13 25.5563 13 22.4541 13 19.352Z" fill="#BB51FF"/>
<path d="M31.4717 17.29C32.1784 17.29 32.8912 17.29 33.598 17.29C34.7779 17.29 35.7243 18.0715 35.9579 19.2289C35.9639 19.2587 35.9818 19.2766 35.9998 19.3064C35.9998 22.4384 35.9998 25.5704 35.9998 28.7024C35.862 29.0245 35.7722 29.3824 35.5805 29.6688C35.1253 30.3548 34.4605 30.7128 33.6219 30.7128C32.9032 30.7187 32.1904 30.7128 31.4717 30.7128C31.4717 30.2654 31.4717 29.8179 31.4717 29.3645C32.1605 29.3645 32.8493 29.3705 33.5381 29.3645C34.2029 29.3645 34.6521 28.9231 34.6521 28.2549C34.6521 25.4153 34.6521 22.5756 34.6521 19.736C34.6521 19.0738 34.2089 18.6323 33.5381 18.6263C32.8493 18.6263 32.1605 18.6263 31.4717 18.6263C31.4717 18.1909 31.4717 17.7375 31.4717 17.29Z" fill="#BB51FF"/>
<path d="M31.471 17.2886C31.471 17.736 31.471 18.1835 31.471 18.6369C31.471 18.6905 31.465 18.7383 31.465 18.792C31.465 22.264 31.465 25.742 31.465 29.214C31.465 29.2677 31.471 29.3154 31.471 29.3691C31.471 29.8165 31.471 30.2639 31.471 30.7173C31.477 31.0932 31.4531 31.475 31.501 31.8508C31.5609 32.3221 31.9322 32.6204 32.4054 32.6442C32.8486 32.6681 33.1481 32.9783 33.1182 33.384C33.0882 33.7717 32.7408 34.0223 32.3096 33.9984C31.7166 33.9626 31.2255 33.7061 30.7822 33.3362C30.7822 33.2766 30.7822 33.2169 30.7822 33.1573C30.7822 27.0604 30.7822 20.9575 30.7822 14.8606C30.7822 14.8009 30.7822 14.7413 30.7882 14.6816C31.2195 14.276 31.7286 14.0433 32.3275 14.0015C32.7408 13.9777 33.0882 14.2342 33.1182 14.616C33.1481 15.0097 32.8606 15.3259 32.4533 15.3617C31.8064 15.4154 31.465 15.7912 31.459 16.4415C31.465 16.7278 31.471 17.0082 31.471 17.2886Z" fill="#BB51FF"/>
<path d="M30.7948 14.6888C30.7948 14.7484 30.7888 14.8081 30.7888 14.8677C30.7888 20.9646 30.7888 27.0675 30.7888 33.1644C30.7888 33.2241 30.7888 33.2837 30.7888 33.3434C30.4294 33.6238 30.0521 33.8803 29.5849 33.9519C29.4232 33.9758 29.2554 33.9936 29.0937 33.9936C28.7583 33.9877 28.4888 33.7192 28.4588 33.3852C28.4289 33.0809 28.6445 32.7767 28.95 32.6931C29.0338 32.6693 29.1237 32.6633 29.2135 32.6573C29.7107 32.6156 30.094 32.2218 30.112 31.7327C30.1239 31.3986 30.112 31.0645 30.106 30.7245C30.106 30.277 30.106 29.8296 30.106 29.3822C30.106 29.3225 30.112 29.2629 30.112 29.2032C30.112 25.7431 30.112 22.2831 30.112 18.823C30.112 18.7633 30.106 18.7037 30.106 18.644C30.106 18.1966 30.106 17.7492 30.106 17.3017C30.106 16.9677 30.1179 16.6336 30.112 16.2995C30.1 15.8103 29.7166 15.4166 29.2195 15.3748C29.1117 15.3629 28.9919 15.351 28.8901 15.3152C28.6026 15.2137 28.4169 14.8916 28.4648 14.6053C28.5187 14.2771 28.7823 14.0385 29.1117 14.0325C29.7705 13.9968 30.3156 14.2592 30.7948 14.6888Z" fill="#BB51FF"/>
<path d="M30.1053 29.3673C30.1053 29.8147 30.1053 30.2621 30.1053 30.7096C28.3264 30.7096 26.5475 30.7096 24.7686 30.7096C24.6787 30.7096 24.5889 30.7036 24.499 30.7036C24.499 30.2562 24.499 29.8147 24.499 29.3673V29.3613C26.3678 29.3673 28.2365 29.3673 30.1053 29.3673Z" fill="#BB51FF"/>
<path d="M30.1113 17.2892C30.1113 17.7366 30.1113 18.184 30.1113 18.6314C28.2425 18.6314 26.3738 18.6314 24.499 18.6314V18.6255C24.499 18.1781 24.499 17.7366 24.499 17.2892C26.1581 17.2892 27.8172 17.2832 29.4764 17.2832C29.692 17.2951 29.9016 17.2892 30.1113 17.2892Z" fill="#BB51FF"/>
<path d="M20.0382 22.7221C20.0621 22.3761 20.1879 22.1256 20.4814 22.0122C20.9366 21.8332 21.3978 22.1613 21.3978 22.6744C21.4038 23.5036 21.3978 24.3269 21.3978 25.1561C21.3978 26.0152 21.3978 26.8683 21.3978 27.7273C21.3978 28.1628 21.1522 28.4611 20.7689 28.479C20.3796 28.5028 20.0981 28.2284 20.0501 27.787C20.0501 27.775 20.0382 27.7571 20.0262 27.7213C19.2475 28.1807 18.421 28.306 17.5585 28.0375C16.9296 27.8466 16.4265 27.4767 16.0371 26.9518C15.3064 25.9555 15.2884 24.5058 15.9892 23.5573C16.4564 22.913 17.0673 22.5014 17.846 22.3284C18.6186 22.1554 19.3314 22.3284 20.0382 22.7221ZM18.439 26.8205C19.3434 26.8205 20.0561 26.1106 20.0561 25.2098C20.0561 24.3388 19.3134 23.605 18.439 23.605C17.5525 23.605 16.8218 24.3448 16.8218 25.2337C16.8218 26.1046 17.5465 26.8205 18.439 26.8205Z" fill="#C469FE"/>
<path d="M24.505 22.2708C24.9542 22.1217 25.4094 22.0203 25.8886 22.0322C27.368 22.062 28.7277 23.285 28.9553 24.7466C29.2188 26.4647 28.0748 28.0575 26.4396 28.4095C25.8766 28.5288 25.3256 28.5049 24.7805 28.3319C24.6907 28.3021 24.5949 28.2723 24.505 28.2484C24.505 28.2365 24.499 28.2246 24.499 28.2186C24.499 27.7055 24.499 27.1985 24.499 26.6854C24.5469 26.7152 24.6008 26.7451 24.6488 26.7809C24.9482 27.0076 25.2956 27.1269 25.667 27.1388C26.9368 27.1865 27.8652 26.071 27.5956 24.8301C27.392 23.8816 26.3977 23.2373 25.4454 23.4103C25.086 23.4759 24.7925 23.6489 24.499 23.8398C24.499 23.3268 24.499 22.8197 24.499 22.3066C24.505 22.2947 24.505 22.2828 24.505 22.2708Z" fill="#C469FE"/>
<path d="M24.5001 22.3072C24.5001 22.8203 24.5001 23.3273 24.5001 23.8404C24.4821 23.8642 24.4701 23.8941 24.4522 23.9179C23.6795 24.5742 23.6795 25.9224 24.4522 26.6025C24.4701 26.6263 24.4821 26.6562 24.5001 26.68C24.5001 27.1931 24.5001 27.7002 24.5001 28.2132C24.3024 28.1178 24.1048 28.0163 23.9371 27.9388C23.7993 28.0939 23.6855 28.2848 23.5238 28.3802C23.0746 28.6487 22.5295 28.3206 22.5295 27.8016C22.5235 27.1394 22.5295 26.4772 22.5295 25.815C22.5295 23.9537 22.5295 22.0924 22.5295 20.2312C22.5295 19.8911 22.7931 19.5869 23.1165 19.5391C23.4459 19.4974 23.7813 19.7241 23.8592 20.0462C23.8772 20.1238 23.8772 20.2073 23.8772 20.2908C23.8772 21.0544 23.8772 21.824 23.8772 22.6115C24.0928 22.5041 24.2964 22.4027 24.5001 22.3072Z" fill="#C469FE"/>
<path d="M24.452 23.9121C24.4699 23.9718 24.4939 24.0374 24.4939 24.097C24.4999 24.8666 24.4999 25.6422 24.4939 26.4117C24.4939 26.4714 24.4639 26.537 24.452 26.5967C23.6853 25.9166 23.6853 24.5743 24.452 23.9121Z" fill="#E2E9F1"/>
</svg>
