<svg width="48" height="48" viewBox="0 0 48 48" fill="none" xmlns="http://www.w3.org/2000/svg">
<rect width="48" height="48" rx="24" fill="#EAF7ED"/>
<path fill-rule="evenodd" clip-rule="evenodd" d="M23.6279 22.3025C23.7228 22.1813 23.7909 22.141 23.9342 22.056L23.9818 22.0277C24.3161 21.9079 24.6372 21.8586 24.9584 22.0348C25.3451 22.2673 25.5089 22.6336 25.522 23.0986C25.5024 23.5354 25.4958 23.9793 25.522 24.4161H25.5671C25.5413 25.0618 25.5482 25.7076 25.5666 26.3533C25.5797 26.3533 25.5929 26.3533 25.606 26.3606C25.6858 26.2745 25.7655 26.1893 25.8451 26.1043C26.0011 25.9376 26.1562 25.7719 26.3084 25.603C26.7811 25.0859 27.2537 25.0276 27.8117 25.4282C28.0228 25.6624 28.1508 25.9458 28.1956 26.2671H28.1902C28.1573 26.7238 27.8946 27.0283 27.5989 27.3258C27.236 27.697 26.8773 28.0815 26.5194 28.4651L26.5193 28.4652L26.5184 28.4662C26.4296 28.5614 26.3409 28.6565 26.2522 28.7513C26.0613 28.9276 25.8849 29.1177 25.7089 29.3074C25.491 29.5422 25.2737 29.7764 25.0302 29.983C24.7149 30.1353 24.393 30.2252 24.058 30.0384C23.7702 29.849 23.5378 29.5915 23.3061 29.3347L23.3061 29.3347L23.3061 29.3346C23.1992 29.2162 23.0925 29.098 22.9806 28.9866C22.7506 28.7582 22.5207 28.516 22.2973 28.2808C22.1167 28.087 21.936 27.895 21.7553 27.703L21.755 27.7026C21.5745 27.5107 21.3939 27.3188 21.2133 27.1252C21.0885 26.9937 20.9637 26.8553 20.8914 26.6754C20.8652 26.6062 20.8455 26.537 20.8323 26.4678C20.6746 25.5751 21.5812 24.8555 22.3499 25.2637C22.4944 25.3398 22.6258 25.4436 22.7441 25.582C22.891 25.7513 23.0475 25.907 23.2047 26.0634L23.2047 26.0634C23.2725 26.1308 23.3403 26.1983 23.4076 26.2671C23.4207 26.2602 23.4339 26.2533 23.4536 26.2533C23.4536 25.9237 23.4519 25.5941 23.4503 25.2654L23.4503 25.2651C23.4486 24.9383 23.447 24.6123 23.447 24.288C23.4733 23.8936 23.4667 23.4922 23.447 23.0978H23.4253L23.4289 23.0387C23.4441 22.7808 23.4593 22.5246 23.6279 22.3025ZM20.6024 26.7238C20.7009 26.7238 20.7995 26.71 20.8914 26.6754C20.7995 26.71 20.7009 26.7169 20.6024 26.7238ZM34.9898 26.3533C34.9904 26.5133 34.9925 26.6736 34.9947 26.834V26.8342C35.0029 27.457 35.0112 28.082 34.9305 28.7029C34.9305 29.0431 34.8738 29.3764 34.8174 29.7076C34.7947 29.8411 34.772 29.9744 34.7532 30.1076C34.6875 30.5643 34.5626 31.0072 34.3524 31.4154C34.1619 31.8237 33.9254 32.1974 33.6232 32.5226C33.1239 33.1108 32.4735 33.4222 31.7706 33.6367C30.8903 33.8997 29.9837 33.9827 29.0705 33.9896C26.0157 34.0035 22.9674 34.0035 19.9126 33.9896C18.8352 33.9827 17.7643 33.8789 16.7461 33.4706C16.3716 33.3184 16.1088 33.1592 15.7803 32.8963C15.511 32.6818 15.2614 32.4257 15.0511 32.142C14.9 31.9414 14.8081 31.7753 14.6307 31.4154C14.4402 31.0764 14.3482 30.7027 14.2562 30.329C14.2102 30.1422 14.1708 29.9554 14.1445 29.7685C14.0723 29.2772 14.0328 28.7859 14.0066 28.2877C14.0066 28.0282 14.0049 27.7687 14.0033 27.5092C14.0016 27.2497 14 26.9902 14 26.7307V25.4852V24.2949V23.1972V23.0978V21.8798C14 21.4359 14 20.9991 14.0066 20.5552L14.0064 20.4399C14.0058 20.1153 14.0054 19.8731 14.0524 19.3927C14.092 18.8269 14.1072 18.7129 14.1402 18.4655L14.1573 18.3359C14.2097 17.8639 14.3211 17.4059 14.4981 16.9621C14.6882 16.3984 14.9569 15.8912 15.3764 15.4825C15.8679 14.9048 16.5036 14.5878 17.1853 14.3834C17.8669 14.1721 18.5747 14.0946 19.2695 14.0594C20.3247 13.9819 21.3799 13.9889 22.4351 14.0312C23.4837 14.0664 24.3357 14.5737 24.9059 15.5459C24.9986 15.6953 25.0958 15.8427 25.1931 15.9904L25.1931 15.9904C25.3574 16.2397 25.5222 16.4896 25.6662 16.7507C25.7645 16.9268 25.8956 17.0818 26.0529 17.1946C26.243 17.3284 26.4658 17.3989 26.728 17.3989C28.491 17.3848 30.2606 17.3777 32.0236 17.3989C32.8363 17.4059 33.5442 17.7371 34.1013 18.3923C34.2455 18.5332 34.3634 18.6882 34.4683 18.8573C34.6125 19.0968 34.7174 19.3645 34.7895 19.6464C34.8681 19.9423 34.9402 20.2382 34.9336 20.5552V21.8798V23.0986V24.2773H35V25.3117V26.3533H34.9898ZM23.8367 30.1089C23.9102 30.1152 23.9868 30.1217 24.0419 30.0595C23.9787 30.1331 23.9001 30.1203 23.8215 30.1076L23.8367 30.1089Z" fill="#2FB44B"/>
</svg>
