<svg width="48" height="48" viewBox="0 0 48 48" fill="none" xmlns="http://www.w3.org/2000/svg">
<rect width="48" height="48" rx="24" fill="#FFF4DB"/>
<path d="M32.67 19.1051C33.5865 19.4328 34.1087 20.4771 33.9809 21.4159C33.7365 23.1435 33.4532 24.871 33.1921 26.5986C33.1866 26.6264 33.1755 26.6486 33.1699 26.6764C30.9702 25.2988 28.7649 25.221 26.6818 26.843C24.9098 28.2262 24.3765 30.1259 24.8154 32.3312C24.7487 32.3312 24.6765 32.3312 24.5987 32.3312C21.7546 32.3312 18.905 32.3312 16.0609 32.3312C14.8777 32.3312 14 31.448 14 30.2648C14 25.8542 14 21.4492 14 17.0386C14 16.061 14.561 15.3 15.4609 15.0667C15.6331 15.0222 15.8164 15.0056 15.9942 15.0056C17.2218 15 18.4495 15.0056 19.6826 15C20.2548 15 20.7381 15.1889 21.1325 15.611C21.4824 15.9888 21.8435 16.3554 22.1823 16.7387C22.3545 16.9275 22.549 17.0053 22.8045 17.0053C25.3931 16.9998 27.9816 16.9998 30.5702 16.9998C31.8256 16.9998 32.6255 17.7774 32.6644 19.0328C32.6644 19.0551 32.6644 19.0717 32.67 19.1051ZM31.3257 18.9995C31.309 18.5662 31.059 18.3329 30.6424 18.3329C28.0205 18.3329 25.3931 18.3274 22.7712 18.3329C22.1601 18.3329 21.6491 18.1218 21.238 17.6719C20.9047 17.2997 20.5548 16.9442 20.2159 16.572C20.0604 16.3998 19.8826 16.3276 19.6493 16.3276C18.455 16.3332 17.2607 16.3332 16.0664 16.3332C15.5665 16.3332 15.3332 16.5665 15.3332 17.072C15.3332 18.594 15.3332 20.1105 15.3332 21.6325C15.3332 21.6881 15.3332 21.7436 15.3332 21.8047C15.4221 21.4548 15.4832 21.0993 15.5331 20.7493C15.6776 19.6994 16.483 18.9995 17.544 18.9995C22.0546 18.9995 26.5707 18.9995 31.0813 18.9995C31.159 18.9995 31.2368 18.9995 31.3257 18.9995Z" fill="#FFB501"/>
<path d="M29.9927 35.002C27.7985 35.0075 25.9932 33.2188 25.9932 31.0302C25.9932 28.7916 27.7707 27.0029 30.0038 27.0029C32.1869 27.0029 33.9866 28.7972 33.9922 30.9913C34.0033 33.2022 32.2202 34.9909 29.9927 35.002ZM30.6593 30.3303C30.6593 30.0914 30.6648 29.8859 30.6593 29.6804C30.6537 29.2915 30.3649 29.0027 29.9927 28.9971C29.6205 28.9971 29.3316 29.286 29.3261 29.6748C29.3205 29.8859 29.3261 30.1026 29.3261 30.3303C29.1039 30.3303 28.8984 30.3303 28.6928 30.3303C28.2873 30.3359 27.9929 30.6192 27.9929 30.9969C27.9929 31.3746 28.2929 31.6579 28.6984 31.6579C28.9039 31.6579 29.1095 31.6579 29.3261 31.6579C29.3261 31.8801 29.3261 32.0801 29.3261 32.2801C29.3316 32.6967 29.6149 32.9966 29.9982 32.9911C30.376 32.9855 30.6537 32.6911 30.6537 32.2801C30.6537 32.0745 30.6537 31.869 30.6537 31.6579C30.8926 31.6579 31.1092 31.6635 31.3203 31.6579C31.6925 31.6468 31.9813 31.3635 31.9869 30.9969C31.9924 30.6247 31.698 30.3303 31.3147 30.3247C31.1092 30.3247 30.8926 30.3303 30.6593 30.3303Z" fill="#FFB501"/>
</svg>
