<svg width="48" height="48" viewBox="0 0 48 48" fill="none" xmlns="http://www.w3.org/2000/svg">
<rect width="48" height="48" rx="24" fill="#FFE6B6"/>
<path d="M20.5385 14C24.359 14 28.1795 14 32 14C32 20.6667 32 27.3333 32 34C26.6667 34 21.3333 34 16 34C16 28.875 16 23.7552 16 18.6146C17.5282 18.6146 19.0308 18.6146 20.5487 18.6146C20.5487 18.5312 20.5487 18.4583 20.5487 18.3906C20.5487 17.1667 20.5487 15.9427 20.5487 14.7188C20.5487 14.4792 20.5436 14.2396 20.5385 14ZM25.9026 30.6198C26.241 30.6198 26.5538 30.6302 26.8667 30.6146C26.959 30.6094 27.0769 30.5625 27.1436 30.4896C27.8667 29.724 28.5692 28.9375 29.3026 28.1823C29.5385 27.9375 29.6667 27.6979 29.6103 27.3646C29.5949 27.2812 29.5744 27.1823 29.5179 27.125C28.7231 26.2604 27.9231 25.3958 27.1231 24.5365C27.0872 24.4948 27.0359 24.4427 26.9897 24.4375C26.6359 24.4271 26.2769 24.4323 25.9026 24.4323C25.9026 24.8854 25.9026 25.3177 25.9026 25.7656C23.2718 25.7656 20.6564 25.7656 18.041 25.7656C18.041 26.9427 18.041 28.1094 18.041 29.2969C20.6667 29.2969 23.2821 29.2969 25.9077 29.2969C25.9026 29.75 25.9026 30.1719 25.9026 30.6198ZM22.7744 19.8698C25.241 19.8698 27.6923 19.8698 30.1385 19.8698C30.1385 19.4792 30.1385 19.099 30.1385 18.724C27.6769 18.724 25.2256 18.724 22.7744 18.724C22.7744 19.1094 22.7744 19.4792 22.7744 19.8698ZM25.2359 17.3698C26.8821 17.3698 28.5128 17.3698 30.1385 17.3698C30.1385 16.9792 30.1385 16.599 30.1385 16.224C28.4974 16.224 26.8667 16.224 25.2359 16.224C25.2359 16.6094 25.2359 16.9792 25.2359 17.3698Z" fill="#FDAF18"/>
<path d="M19.3842 17.4372C18.4611 17.4372 17.5483 17.4372 16.6816 17.4372C17.5739 16.5309 18.4919 15.6038 19.3842 14.6924C19.3842 15.5622 19.3842 16.4893 19.3842 17.4372Z" fill="#FDAF18"/>
<path d="M27.0566 28.1253C24.4258 28.1253 21.8156 28.1253 19.1899 28.1253C19.1899 27.7295 19.1899 27.3441 19.1899 26.943C21.8053 26.943 24.4207 26.943 27.0566 26.943C27.0566 26.693 27.0566 26.4639 27.0566 26.1826C27.4925 26.6514 27.8976 27.0889 28.3079 27.5316C27.8976 27.9743 27.4925 28.4066 27.0566 28.8805C27.0566 28.6045 27.0566 28.3753 27.0566 28.1253Z" fill="#FDAF18"/>
</svg>
