<svg width="48" height="48" viewBox="0 0 48 48" fill="none" xmlns="http://www.w3.org/2000/svg">
<rect width="48" height="48" rx="24" fill="url(#paint0_linear_2739_22379)"/>
<path d="M13 33V15C13 14.4477 13.4477 14 14 14H18.0916C18.3534 14 18.6047 14.1026 18.7916 14.2859L21.9342 17.3663C22.1211 17.5495 22.3724 17.6522 22.6342 17.6522H34C34.5523 17.6522 35 18.0999 35 18.6522V33C35 33.5523 34.5523 34 34 34H14C13.4477 34 13 33.5523 13 33Z" fill="url(#paint1_linear_2739_22379)"/>
<path d="M22.6434 16.1489L20.4512 14H33.9996C34.5518 14 34.9996 14.4477 34.9996 15V16.4348H23.3434C23.0817 16.4348 22.8303 16.3321 22.6434 16.1489Z" fill="#5160FE"/>
<path d="M16 24.7802C16.0794 24.6465 16.1559 24.5101 16.2382 24.3765C17.0911 22.9679 18.238 21.8237 19.7202 20.9997C21.0819 20.2397 22.5553 19.889 24.1404 20.0309C25.3785 20.1423 26.5137 20.5348 27.5607 21.1667C28.8517 21.9434 29.8722 22.9651 30.6398 24.215C30.7456 24.3876 30.8397 24.563 30.9339 24.7412C31.0309 24.9249 31.0162 25.1031 30.9221 25.2868C30.3457 26.3781 29.5546 27.3079 28.5841 28.1041C27.8577 28.697 27.0548 29.1758 26.1608 29.5099C25.1991 29.869 24.2051 30.0416 23.167 29.9915C21.3024 29.8968 19.7055 29.1953 18.3086 28.0539C17.3616 27.2828 16.6176 26.3669 16.0618 25.3091C16.0471 25.2785 16.0206 25.2534 16 25.2256C16 25.078 16 24.9305 16 24.7802ZM23.4434 28.8919C24.8491 28.8835 26.0755 28.4799 27.1813 27.7394C28.2341 27.0378 29.0517 26.1331 29.6928 25.0808C29.7163 25.0418 29.7193 24.9639 29.6928 24.9249C29.134 24.0062 28.4341 23.1962 27.5577 22.5336C26.5813 21.7959 25.4873 21.3059 24.2345 21.164C22.7493 20.9914 21.3848 21.3115 20.1231 22.0576C18.9085 22.7758 17.988 23.7641 17.2734 24.9305C17.2499 24.9695 17.2558 25.0474 17.2793 25.0864C17.9204 26.1331 18.7321 27.0351 19.779 27.7338C20.8907 28.4771 22.12 28.8835 23.4434 28.8919Z" fill="white"/>
<path d="M26.4198 25.0001C26.4228 26.5284 25.0964 27.7812 23.4848 27.7812C21.8703 27.7812 20.5469 26.5257 20.5498 24.9973C20.5528 23.4718 21.8673 22.2302 23.4789 22.2246C25.0905 22.2191 26.4169 23.4718 26.4198 25.0001ZM25.2464 25.0001C25.2464 24.0814 24.4494 23.3326 23.4789 23.3354C22.5143 23.3382 21.7262 24.0842 21.7232 24.9973C21.7203 25.916 22.5114 26.6676 23.4819 26.6704C24.4524 26.6704 25.2464 25.9188 25.2464 25.0001Z" fill="white"/>
<rect x="15" y="17" width="4" height="1" rx="0.5" fill="white"/>
<defs>
<linearGradient id="paint0_linear_2739_22379" x1="24" y1="0" x2="24" y2="48" gradientUnits="userSpaceOnUse">
<stop stop-color="#E3E7FF"/>
<stop offset="0.890625" stop-color="#D9F4FF"/>
</linearGradient>
<linearGradient id="paint1_linear_2739_22379" x1="24" y1="14" x2="24" y2="34" gradientUnits="userSpaceOnUse">
<stop stop-color="#5160FE"/>
<stop offset="1" stop-color="#03BCFE"/>
</linearGradient>
</defs>
</svg>
