<svg width="48" height="48" viewBox="0 0 48 48" fill="none" xmlns="http://www.w3.org/2000/svg">
<rect width="48" height="48" rx="24" fill="#FFD9C4"/>
<path d="M15.0083 24.1231C15.0083 22.1014 15.0083 20.0714 15.0083 18.0496C15.0083 16.4106 16.1305 15.2708 17.7598 15.2625C20.0457 15.2542 22.3317 15.2625 24.6176 15.2625C25.2577 15.2625 25.6484 15.6036 25.6484 16.1444C25.6484 16.6769 25.241 17.0263 24.6176 17.0263C22.3732 17.0263 20.1288 17.0263 17.8845 17.0263C17.1031 17.0263 16.7789 17.3508 16.7789 18.1328C16.7789 22.1264 16.7789 26.1199 16.7789 30.1134C16.7789 30.8955 17.1114 31.2283 17.8845 31.2283C21.8745 31.2283 25.8645 31.2283 29.8545 31.2283C30.6608 31.2283 30.9684 30.9038 30.9684 30.0884C30.9684 27.8421 30.9684 25.5957 30.9684 23.3494C30.9684 22.6422 31.5253 22.1846 32.1238 22.3926C32.4979 22.5257 32.7223 22.7919 32.7223 23.1996C32.7223 25.654 32.7473 28.1083 32.7057 30.5627C32.6808 31.8606 31.517 32.9754 30.2036 32.9837C25.9809 33.0004 21.7498 33.0087 17.527 32.9837C16.1388 32.9754 15.0083 31.769 15 30.3547C15 28.283 15.0083 26.2031 15.0083 24.1231Z" fill="#FF8542"/>
<path d="M32.2067 18.9814C31.8493 19.3142 31.5002 19.6303 31.1677 19.9631C29.2391 21.8933 27.3023 23.8235 25.3821 25.762C25.166 25.9783 24.9416 26.1115 24.6423 26.1697C23.7612 26.3278 22.8801 26.5191 21.9989 26.6938C21.4254 26.8103 21.2009 26.594 21.309 26.0366C21.4919 25.1131 21.683 24.1896 21.8576 23.2661C21.8992 23.0747 21.9657 22.9 22.107 22.7586C24.3514 20.5122 26.5958 18.2742 28.8401 16.0195C28.9731 15.8864 29.0563 15.8281 29.2225 15.9945C30.1951 16.9846 31.1843 17.958 32.2067 18.9814Z" fill="#FF8542"/>
<path d="M32.8462 13C33.7024 13.0499 34.4006 13.4576 34.783 14.3062C35.1571 15.1382 35.049 15.9369 34.4671 16.6358C34.0931 17.0767 33.6525 17.4594 33.2535 17.8837C33.1288 18.0085 33.0706 17.9753 32.9626 17.8754C32.0149 16.927 31.0673 15.9785 30.1197 15.03C30.0365 14.9468 29.9784 14.8803 30.0947 14.7721C30.5602 14.3312 30.9925 13.8653 31.4663 13.4493C31.8404 13.1248 32.2976 13.0083 32.8462 13Z" fill="#FF8542"/>
</svg>
