<svg width="48" height="48" viewBox="0 0 48 48" fill="none" xmlns="http://www.w3.org/2000/svg">
<rect width="48" height="48" rx="24" fill="#D4FFDD"/>
<path d="M14 22.9246C14 22.4127 14 21.9222 14 21.4103C14.0421 21.197 14.0842 21.005 14.1263 20.7917C14.4211 19.064 15.2 17.5923 16.4 16.3765C17.6 15.1821 19.0316 14.4142 20.6947 14.1369C22.5474 13.7956 24.3158 14.0943 25.9789 15.0114C27.5368 15.8859 28.7158 17.1444 29.4316 18.8081C30.3579 20.8983 30.4 23.0313 29.6 25.1642C29.4316 25.6335 29.1789 26.0814 28.9474 26.5933C28.9684 26.6146 29.0316 26.6573 29.0737 26.7C30.3579 28.001 31.6632 29.3235 32.9474 30.6246C33.3684 31.0512 33.8316 31.4564 34 32.075C34 32.2669 34 32.4802 34 32.6722C33.9789 32.7362 33.9368 32.8002 33.9158 32.8855C33.7263 33.4827 33.1579 33.9306 32.5474 33.9946C31.9789 34.0373 31.5368 33.824 31.1579 33.4401C29.7263 31.9897 28.2947 30.5392 26.8632 29.0888C26.8 29.0249 26.7789 28.9395 26.7579 28.8756C26.6105 29.0035 26.5263 29.0462 26.4211 29.1102C24.7158 30.198 22.8421 30.6032 20.8421 30.3046C19.2 30.0487 17.7474 29.3235 16.5474 28.1504C15.2842 26.9346 14.4842 25.4628 14.1474 23.7352C14.1053 23.4792 14.0421 23.2019 14 22.9246ZM16.6105 22.1568C16.5895 25.1856 19.0316 27.6811 22.0632 27.7238C25.0737 27.7664 27.5579 25.2709 27.5579 22.1994C27.5579 19.128 25.1368 16.6751 22.1053 16.6538C19.0947 16.6325 16.6526 19.0853 16.6105 22.1568Z" fill="#2FB44B"/>
</svg>
