<svg width="48" height="48" viewBox="0 0 48 48" fill="none" xmlns="http://www.w3.org/2000/svg">
<rect width="48" height="48" rx="24" fill="#F1DBFF"/>
<path d="M18.998 25.777C18.8887 21.7722 21.505 18.7199 24.6523 17.7284C25.3864 17.4943 26.1362 17.3381 26.9093 17.3615C27.2842 17.3772 27.3545 17.2366 27.3467 16.8932C27.3232 16.175 27.3467 15.4646 27.3389 14.7464C27.3389 14.4341 27.417 14.1843 27.7294 14.0516C28.0417 13.9189 28.276 14.0594 28.4947 14.278C30.2441 16.0969 31.9935 17.908 33.7429 19.7269C34.0865 20.086 34.0943 20.3905 33.7507 20.7496C31.9935 22.5763 30.2285 24.403 28.4713 26.2297C28.2682 26.4405 28.0339 26.5654 27.7372 26.4483C27.4248 26.3234 27.3311 26.0814 27.3311 25.7613C27.3389 24.9963 27.3311 24.2235 27.3311 23.4584C27.3311 23.3023 27.3701 23.154 27.1124 23.1462C24.6835 23.0447 22.6062 23.7629 21.0208 25.6755C20.724 26.0346 20.4663 26.4249 20.2476 26.8464C20.0836 27.1665 19.8571 27.3773 19.4744 27.2836C19.0918 27.1899 18.9902 26.9089 18.9902 26.542C18.998 26.1751 18.998 26.0346 18.998 25.777Z" fill="#BE6EFD"/>
<path d="M23.9887 33.9975C21.5442 33.9975 19.0998 33.9975 16.6475 33.9975C15.0699 33.9975 14 32.9436 14 31.3667C14 27.565 14 23.771 14 19.977C14 18.4157 15.0543 17.3619 16.6163 17.3541C17.3816 17.3541 18.1548 17.3462 18.9201 17.3541C19.4668 17.3619 19.8495 17.7132 19.8339 18.1972C19.8183 18.6734 19.4512 19.0012 18.9201 19.009C18.1626 19.0168 17.4129 19.009 16.6553 19.009C15.9915 19.009 15.6557 19.3213 15.6557 19.977C15.6557 23.771 15.6557 27.5728 15.6557 31.3667C15.6557 32.0069 15.9837 32.3347 16.6163 32.3347C21.5364 32.3347 26.4566 32.3347 31.3689 32.3347C32.0093 32.3347 32.3217 31.9991 32.3295 31.3277C32.3295 29.1965 32.3295 27.0653 32.3295 24.9264C32.3295 24.3097 32.7825 23.9037 33.3213 24.0208C33.6962 24.0989 33.9852 24.4189 33.9852 24.8249C33.993 27.1044 34.0086 29.3761 33.9774 31.6556C33.9617 32.9593 32.8215 33.9897 31.4782 33.9975C28.9869 34.0053 26.4878 33.9975 23.9887 33.9975Z" fill="#BE6EFD"/>
</svg>
