<svg width="48" height="48" viewBox="0 0 48 48" fill="none" xmlns="http://www.w3.org/2000/svg">
<rect width="48" height="48" rx="24" fill="#DAE5FF"/>
<g clip-path="url(#clip0_2739_22068)">
<path d="M29.4511 23.406C30.1249 23.4536 30.7694 23.425 31.3749 23.5584C33.5038 24.0158 34.9198 25.9501 34.7538 28.0653C34.5878 30.1425 32.8788 31.8005 30.7108 31.9815C30.5643 31.991 30.4179 32.0006 30.2714 32.0006C25.6815 32.0006 21.0917 32.0101 16.5018 32.0006C14.2069 31.991 12.4686 30.5618 12.0682 28.4084C11.7167 26.5027 12.8007 24.5875 14.6757 23.7585C14.8612 23.6823 15.0565 23.4632 15.1054 23.2726C15.9159 20.0044 18.7675 17.7557 22.1854 17.7176C25.5253 17.6699 28.455 19.8519 29.3436 23.0534C29.3827 23.1868 29.4218 23.3202 29.4511 23.406ZM20.0175 25.5403C20.0175 26.2264 20.0077 26.9029 20.0175 27.5889C20.0272 28.3417 20.5643 28.637 21.2382 28.2559C22.4003 27.5985 23.5624 26.9315 24.7147 26.2454C25.3495 25.8738 25.3593 25.2735 24.7245 24.9019C23.5526 24.2159 22.3807 23.5394 21.1991 22.8724C20.5643 22.5103 20.0272 22.8248 20.0077 23.5489C20.0077 24.2064 20.0175 24.8734 20.0175 25.5403Z" fill="#7DA2F6"/>
<path d="M31.2481 12.2478C31.5215 11.962 31.9805 11.9143 32.3125 12.1525C34.2266 13.5627 35.7402 15.2969 36.8633 17.3645C37.1074 17.8124 37 18.2221 36.5996 18.4222C36.2188 18.6127 35.8184 18.4889 35.584 18.0506C34.5488 16.164 33.1621 14.5727 31.4141 13.2673C31.1211 13.0482 30.9258 12.7433 31.1211 12.4003C31.1602 12.3526 31.1992 12.2954 31.2481 12.2478Z" fill="#7DA2F6"/>
<path d="M34.0606 18.3269C34.2168 18.6413 34.1582 19.032 33.8946 19.2702C33.836 19.3178 33.7774 19.3559 33.7188 19.3845C33.5039 19.4607 33.211 19.3274 32.9668 19.2416C32.8692 19.2035 32.8008 19.051 32.7422 18.9462C32.0586 17.8028 31.1992 16.8023 30.1543 15.9448C29.7246 15.5922 29.6367 15.1635 29.9102 14.83C30.1934 14.487 30.6524 14.487 31.1016 14.8586C32.2832 15.8209 33.2598 16.9548 34.0215 18.2602C34.041 18.2888 34.0508 18.3078 34.0606 18.3269Z" fill="#7DA2F6"/>
<path d="M31.3553 19.5465C31.3846 19.737 31.3162 19.9371 31.1893 20.0896C31.1014 20.2039 30.9939 20.3087 30.867 20.3373C30.6326 20.3945 30.2615 20.3087 30.0955 20.1372C29.5486 19.575 29.0603 18.9652 28.5623 18.3554C28.3182 18.0505 28.3572 17.7265 28.6209 17.4502C28.8748 17.193 29.2654 17.0977 29.4998 17.3454C30.1443 18.0124 30.7205 18.7365 31.3064 19.4416C31.3357 19.4702 31.3455 19.4988 31.3553 19.5465Z" fill="#7DA2F6"/>
<path d="M20.877 26.6637V24.4817C20.877 24.1864 21.1992 24.0053 21.4629 24.1578C22.0879 24.5199 22.6934 24.8629 23.3574 25.244C23.6113 25.3869 23.6113 25.749 23.3574 25.8919C22.7227 26.2635 22.1074 26.6161 21.4629 26.9877C21.1992 27.1306 20.877 26.9496 20.877 26.6637Z" fill="#7DA2F6"/>
</g>
<defs>
<clipPath id="clip0_2739_22068">
<rect width="25" height="20" fill="white" transform="translate(12 12)"/>
</clipPath>
</defs>
</svg>
