<svg width="48" height="48" viewBox="0 0 48 48" fill="none" xmlns="http://www.w3.org/2000/svg">
<rect width="48" height="48" rx="24" fill="#E4F4FF"/>
<g clip-path="url(#clip0_2739_22070)">
<path d="M15.0271 24.0002C15.0271 22.335 14.9827 20.6606 15.036 18.9955C15.1071 16.7878 16.422 14.9824 18.4121 14.3369C19.0074 14.1405 19.6559 14.0469 20.2867 14.0282C21.5572 13.9814 22.8366 14.0095 24.1071 14.0189C24.8889 14.0189 25.2443 14.4024 25.2443 15.2256C25.2443 16.0956 25.2443 16.9749 25.2443 17.8449C25.2532 20.2958 27.0034 22.1573 29.34 22.2041C30.2018 22.2228 31.0548 22.2041 31.9166 22.2134C32.6629 22.2228 32.9916 22.5689 33.0005 23.364C33.0093 25.0666 33.0182 26.7597 33.0005 28.4623C32.9649 31.8018 30.9304 33.9534 27.7586 33.9908C25.2532 34.0189 22.7566 34.0189 20.2512 33.9908C17.0794 33.9534 15.0449 31.7925 15.0182 28.4529C15.0005 26.9749 15.0182 25.4875 15.0182 24.0095C15.0093 24.0002 15.0182 24.0002 15.0271 24.0002ZM21.8682 24.9263C21.9037 24.8982 21.9481 24.8795 21.9837 24.8514C22.1436 25.0479 22.2946 25.2537 22.4723 25.4314C22.8366 25.8056 23.2275 25.843 23.5296 25.5437C23.8405 25.2443 23.8228 24.7672 23.4763 24.393C22.8988 23.7663 22.3124 23.1489 21.7171 22.5408C21.3529 22.1667 20.9886 22.148 20.6244 22.5221C20.0024 23.1489 19.3983 23.7944 18.803 24.4398C18.4921 24.7766 18.4921 25.235 18.7675 25.5249C19.0518 25.8243 19.4605 25.8149 19.7981 25.4875C19.9936 25.2911 20.189 25.0853 20.4555 24.814C20.4555 25.0946 20.4555 25.2443 20.4555 25.394C20.4555 26.5165 20.4555 27.6391 20.4555 28.7616C20.4555 29.3977 20.7132 29.7345 21.1752 29.7251C21.6372 29.7158 21.8771 29.379 21.8771 28.7429C21.8771 28.1816 21.8771 27.6204 21.8771 27.0591C21.8682 26.3481 21.8682 25.6372 21.8682 24.9263Z" fill="#70C5FF"/>
<path d="M26.5497 16.5254C26.5497 15.9455 26.5142 15.3655 26.5675 14.7949C26.5852 14.5516 26.7363 14.1962 26.9051 14.1307C27.1094 14.0465 27.4914 14.1307 27.6514 14.2991C29.3661 16.0764 31.063 17.8819 32.7511 19.6966C32.8932 19.8557 32.9998 20.2205 32.9288 20.3889C32.8399 20.5853 32.5378 20.7911 32.3246 20.8005C31.2318 20.8379 30.139 20.8379 29.0462 20.8098C27.6514 20.7724 26.5852 19.6124 26.5497 18.1625C26.5319 17.6199 26.5497 17.0774 26.5497 16.5254Z" fill="#70C5FF"/>
</g>
<defs>
<clipPath id="clip0_2739_22070">
<rect width="18" height="20" fill="white" transform="translate(15 14)"/>
</clipPath>
</defs>
</svg>
