<svg width="36" height="36" viewBox="0 0 36 36" fill="none" xmlns="http://www.w3.org/2000/svg">
<circle cx="18" cy="18" r="18" fill="#F2EAFF"/>
<g clip-path="url(#clip0_3716_11435)">
<path d="M10 15.0217C10.2469 14.5873 10.4937 14.153 10.7437 13.7186C11.0125 13.253 11.3719 13.1123 11.8844 13.2655C12.2812 13.3842 12.675 13.5092 13.075 13.6186C13.1375 13.6373 13.225 13.6186 13.2844 13.5842C13.5 13.4717 13.7094 13.3498 13.9156 13.2186C13.9719 13.1811 14.0312 13.1155 14.0469 13.053C14.15 12.6405 14.2406 12.2248 14.3375 11.8123C14.4437 11.3498 14.775 11.0873 15.2531 11.0873C15.675 11.0873 16.0938 11.0842 16.5156 11.0873C17.0219 11.0905 17.4 11.453 17.4375 11.9592C17.4469 12.103 17.3594 12.1748 17.2531 12.2342C17.0469 12.2311 16.9719 12.103 16.9313 11.9186C16.8781 11.6686 16.7563 11.578 16.5031 11.578C16.0938 11.578 15.6813 11.578 15.2719 11.578C14.9812 11.578 14.8719 11.6655 14.8031 11.9498C14.6969 12.403 14.5906 12.8592 14.4875 13.3123C14.4563 13.4498 14.3875 13.5373 14.2594 13.603C13.9844 13.7467 13.7125 13.8998 13.4531 14.0686C13.3219 14.153 13.2094 14.1748 13.0625 14.1248C12.6094 13.978 12.15 13.8436 11.6938 13.7061C11.4688 13.6373 11.3125 13.6998 11.1938 13.8998C10.9875 14.253 10.7844 14.6092 10.5781 14.9655C10.4375 15.2092 10.4563 15.3686 10.6594 15.5623C11.0063 15.8905 11.3562 16.2186 11.7062 16.5436C11.8062 16.6342 11.8344 16.7342 11.825 16.8748C11.8063 17.1842 11.8063 17.4967 11.825 17.8092C11.8344 17.9561 11.8 18.0561 11.6938 18.1498C11.3406 18.4717 10.9938 18.7998 10.6469 19.128C10.475 19.2905 10.4375 19.4717 10.5469 19.6623C10.7594 20.0373 10.975 20.4123 11.1938 20.7811C11.3219 20.9936 11.4688 21.0436 11.7125 20.9717C12.1594 20.8373 12.6062 20.703 13.0531 20.5655C13.2031 20.5186 13.325 20.5342 13.4625 20.6248C13.7188 20.7905 13.9844 20.9436 14.2562 21.0842C14.3875 21.153 14.4625 21.2405 14.4969 21.3842C14.5969 21.8405 14.7031 22.2936 14.8125 22.7467C14.875 23.0186 15.0062 23.1217 15.2875 23.1217C15.6719 23.1217 16.0563 23.1217 16.4406 23.1217C16.7625 23.1217 16.8906 23.0186 16.9594 22.703C17.0625 22.2467 17.1719 21.7936 17.2719 21.3405C17.3 21.2186 17.3688 21.1467 17.4781 21.0905C17.7531 20.9467 18.025 20.7936 18.2875 20.628C18.4156 20.5467 18.5312 20.5123 18.6812 20.5623C18.8906 20.6311 19.1031 20.6905 19.3156 20.7498C19.3125 20.678 19.2938 20.6311 19.2563 20.5967C19.0781 20.4248 18.8906 20.2561 18.7125 20.0811C18.475 19.8498 18.4344 19.5936 18.5938 19.303C18.7188 19.0748 18.85 18.8498 18.9844 18.628C19.1938 18.2748 19.4187 18.1936 19.8094 18.3092C19.9969 18.3655 20.1812 18.4217 20.3687 18.4748C20.2719 18.3498 20.1656 18.2436 20.0531 18.1467C19.9531 18.0623 19.9219 17.9623 19.925 17.8311C19.9344 17.5061 19.9344 17.178 19.925 16.853C19.9219 16.7092 19.9688 16.6092 20.0719 16.5155C20.425 16.1936 20.775 15.8686 21.1219 15.5405C21.2906 15.3811 21.3125 15.203 21.1969 15.003C20.9937 14.6467 20.7906 14.2905 20.5813 13.9373C20.4313 13.6842 20.2906 13.6342 20.0063 13.7217C19.5594 13.8561 19.1125 13.9873 18.6687 14.1311C18.5281 14.1748 18.4219 14.1498 18.3062 14.0686C18.1281 13.9467 17.95 13.7998 17.75 13.728C17.3906 13.5998 17.2156 13.3655 17.1906 12.9998C17.1906 12.9842 17.1844 12.9686 17.1813 12.953C17.1531 12.7998 17.1844 12.6748 17.3406 12.6061C17.5594 12.6186 17.6219 12.6561 17.6531 12.8717C17.6844 13.0873 17.7781 13.2248 17.9875 13.2998C18.1156 13.3467 18.2438 13.4217 18.3469 13.5123C18.5031 13.6467 18.65 13.6373 18.8313 13.578C19.1781 13.4592 19.5344 13.3592 19.8844 13.253C20.3625 13.1092 20.7406 13.2561 20.9937 13.6905C21.1906 14.0311 21.3875 14.3717 21.5844 14.7155C21.85 15.178 21.7906 15.5717 21.4031 15.9311C21.1062 16.2061 20.8125 16.4873 20.5156 16.7623C20.4438 16.828 20.4156 16.8905 20.4187 16.9905C20.4281 17.228 20.4156 17.4686 20.425 17.7061C20.4281 17.7748 20.4563 17.8561 20.5031 17.9061C20.6156 18.028 20.7438 18.1342 20.8625 18.2498C20.9563 18.3405 21.0031 18.3092 21.0281 18.1998C21.0844 17.9561 21.1406 17.7155 21.1969 17.4717C21.275 17.1373 21.4812 16.9655 21.825 16.9592C22.0938 16.953 22.3656 16.953 22.6344 16.9592C22.9781 16.9655 23.1812 17.1311 23.2656 17.4686C23.325 17.6998 23.3687 17.9342 23.4344 18.1623C23.4531 18.2248 23.5188 18.2748 23.5656 18.328C23.5781 18.3436 23.6062 18.3436 23.6187 18.3592C23.8312 18.5592 24.0563 18.5248 24.3 18.4248C24.4531 18.3623 24.6156 18.3248 24.775 18.2842C25.0312 18.2186 25.2719 18.303 25.4125 18.5248C25.5844 18.7967 25.7438 19.0748 25.8969 19.3592C26.025 19.603 25.9781 19.8592 25.775 20.0561C25.5969 20.2311 25.4156 20.3998 25.2281 20.5686C25.1562 20.6342 25.1156 20.6998 25.1406 20.7967C25.1469 20.8217 25.15 20.8498 25.1438 20.8748C25.0844 21.1248 25.2031 21.2905 25.3938 21.4373C25.5344 21.5436 25.6562 21.6717 25.7812 21.7998C25.9812 22.0061 26.0219 22.2623 25.8844 22.5123C25.7406 22.778 25.5906 23.0373 25.4344 23.2936C25.2812 23.5436 25.0375 23.6373 24.75 23.5592C24.5063 23.4936 24.2656 23.4092 24.0188 23.3436C23.9563 23.328 23.875 23.3498 23.8094 23.3717C23.4875 23.4748 23.3719 23.7248 23.3406 24.0373C23.3281 24.1592 23.2875 24.2811 23.2563 24.3998C23.175 24.7061 22.9812 24.8717 22.6687 24.8842C22.3719 24.8936 22.075 24.8936 21.7812 24.8842C21.4719 24.8717 21.2687 24.6967 21.1969 24.3967C21.1406 24.1655 21.0875 23.9311 21.0375 23.6998C21.0188 23.6155 20.9719 23.5686 20.9031 23.5123C20.6469 23.303 20.3875 23.3155 20.1031 23.4373C19.9719 23.4936 19.8281 23.528 19.6875 23.5623C19.4219 23.628 19.1812 23.5436 19.0406 23.3123C18.875 23.0436 18.7156 22.7686 18.5656 22.4905C18.4313 22.2373 18.4875 21.978 18.7031 21.7686C18.8813 21.5967 19.0625 21.4311 19.2594 21.2436C19.0281 21.1717 18.8219 21.1061 18.6156 21.0498C18.5781 21.0405 18.525 21.0561 18.4906 21.0748C18.2594 21.203 18.0312 21.3342 17.8063 21.4748C17.7594 21.503 17.7156 21.5592 17.7031 21.6092C17.5969 22.0436 17.5 22.478 17.3938 22.9092C17.2906 23.3311 16.975 23.5873 16.5437 23.5936C16.1031 23.5998 15.6594 23.5998 15.2188 23.5936C14.7656 23.5873 14.4437 23.3248 14.3406 22.8811C14.2437 22.4717 14.1469 22.0623 14.0594 21.653C14.0375 21.5467 13.9844 21.4873 13.8906 21.4405C13.6875 21.3373 13.4906 21.2217 13.3 21.0967C13.2156 21.0405 13.15 21.0342 13.0563 21.0623C12.6656 21.1873 12.275 21.303 11.8813 21.4248C11.3844 21.578 11.0063 21.428 10.7469 20.978C10.4969 20.5405 10.2469 20.0967 10 19.6592C10 19.5248 10 19.3873 10 19.253C10.1063 18.9498 10.3406 18.7467 10.5688 18.5373C10.8 18.328 11.0281 18.1155 11.2469 17.8967C11.2938 17.8498 11.3188 17.7655 11.3188 17.6998C11.3281 17.4561 11.3281 17.2123 11.3188 16.9717C11.3156 16.9092 11.2937 16.828 11.2531 16.7873C11.025 16.5623 10.7906 16.3405 10.5531 16.128C10.3281 15.9248 10.1031 15.7217 10 15.4186C10 15.2905 10 15.1561 10 15.0217ZM24.9406 23.1217C24.975 23.0873 25.0281 23.0498 25.0594 22.9998C25.1875 22.7873 25.3062 22.5686 25.4375 22.3561C25.5 22.253 25.4906 22.178 25.4 22.0998C25.1875 21.9092 24.9844 21.7092 24.7719 21.5155C24.6781 21.4311 24.6438 21.3405 24.6531 21.2123C24.6656 21.0248 24.6656 20.8373 24.6531 20.653C24.6438 20.528 24.6812 20.4342 24.775 20.3498C24.9844 20.1623 25.1812 19.9623 25.3906 19.778C25.4937 19.6873 25.5 19.6061 25.4281 19.4967C25.3031 19.2936 25.1812 19.0873 25.0719 18.878C25.0094 18.7623 24.9344 18.7405 24.8188 18.778C24.5469 18.8655 24.2719 18.9405 24 19.028C23.8813 19.0655 23.7844 19.0498 23.6781 18.9811C23.5219 18.878 23.35 18.803 23.1969 18.6967C23.1156 18.6405 23.0344 18.5467 23.0094 18.4561C22.9281 18.178 22.8687 17.8936 22.8062 17.6092C22.7812 17.503 22.7344 17.4498 22.6156 17.453C22.3625 17.4592 22.1062 17.4592 21.8531 17.453C21.7375 17.4498 21.6844 17.4936 21.6625 17.6061C21.6063 17.8811 21.5344 18.153 21.475 18.4248C21.4469 18.5623 21.3812 18.653 21.2469 18.7155C21.0875 18.7873 20.9375 18.8842 20.7906 18.9811C20.6875 19.0498 20.5875 19.0686 20.4688 19.0311C20.1938 18.9436 19.9125 18.8623 19.6375 18.7748C19.5344 18.7436 19.4625 18.7561 19.4062 18.8623C19.2844 19.0873 19.1562 19.3061 19.025 19.5217C18.9656 19.6186 18.9781 19.6905 19.0625 19.7655C19.275 19.9561 19.4781 20.1561 19.6906 20.3498C19.7937 20.4405 19.8281 20.5436 19.8188 20.6811C19.8063 20.8498 19.8063 21.0217 19.8188 21.1936C19.8281 21.3248 19.8 21.4248 19.7 21.5123C19.4844 21.7092 19.275 21.9123 19.0594 22.1061C18.975 22.1811 18.9625 22.253 19.0219 22.3498C19.15 22.5592 19.2719 22.7686 19.3875 22.9842C19.4563 23.1123 19.5375 23.1311 19.6656 23.0873C19.9312 22.9998 20.2 22.9248 20.4688 22.8405C20.5875 22.803 20.6875 22.8217 20.7906 22.8936C20.9312 22.9905 21.0781 23.0811 21.2312 23.153C21.3687 23.2155 21.4406 23.3061 21.4719 23.4498C21.5281 23.7248 21.6 23.9936 21.6594 24.2686C21.6813 24.3717 21.725 24.4217 21.8344 24.4217C22.1 24.4155 22.3656 24.4186 22.6281 24.4217C22.7219 24.4217 22.7719 24.3873 22.7906 24.2967C22.8281 24.1248 22.8656 23.953 22.9094 23.7811C23.0594 23.2155 22.9594 23.2967 23.4469 23.0311C23.8781 22.7967 23.75 22.7748 24.3062 22.9436C24.5094 22.9936 24.7094 23.053 24.9406 23.1217Z" fill="url(#paint0_linear_3716_11435)"/>
<path d="M17.3344 12.615C17.1781 12.6838 17.1469 12.8088 17.175 12.9619C17.1781 12.9775 17.1844 12.9932 17.1844 13.0088C17.2094 13.3775 17.3844 13.6119 17.7437 13.7369C17.9437 13.8088 18.1187 13.9525 18.3 14.0775C18.4156 14.1557 18.5219 14.1838 18.6625 14.14C19.1062 13.9963 19.5562 13.8682 20 13.7307C20.2844 13.6432 20.4219 13.6932 20.575 13.9463C20.7844 14.2994 20.9875 14.6557 21.1906 15.0119C21.3031 15.2119 21.2812 15.39 21.1156 15.5494C20.7687 15.8775 20.4187 16.2057 20.0656 16.5244C19.9594 16.6182 19.9125 16.7182 19.9187 16.8619C19.9281 17.1869 19.9281 17.515 19.9187 17.84C19.9156 17.9713 19.95 18.0713 20.0469 18.1557C20.1594 18.2525 20.2656 18.3588 20.3625 18.4838C20.175 18.4275 19.9906 18.3744 19.8031 18.3182C19.4125 18.1994 19.1875 18.2838 18.9781 18.6369C18.8437 18.8588 18.7125 19.0838 18.5875 19.3119C18.4281 19.6025 18.4687 19.8588 18.7062 20.09C18.8844 20.265 19.0719 20.4307 19.25 20.6057C19.2844 20.64 19.3062 20.69 19.3094 20.7588C19.0969 20.6963 18.8844 20.64 18.675 20.5713C18.5281 20.5213 18.4125 20.5557 18.2812 20.6369C18.0187 20.8025 17.7469 20.9557 17.4719 21.0994C17.3625 21.1588 17.2937 21.2275 17.2656 21.3494C17.1625 21.8057 17.0562 22.2588 16.9531 22.7119C16.8812 23.0244 16.7562 23.1275 16.4344 23.1307C16.05 23.1307 15.6656 23.1307 15.2812 23.1307C15.0031 23.1307 14.8719 23.0244 14.8062 22.7557C14.7 22.3025 14.5937 21.8463 14.4906 21.3932C14.4594 21.2494 14.3844 21.1619 14.25 21.0932C13.9781 20.9525 13.7125 20.7994 13.4562 20.6338C13.3187 20.5463 13.1969 20.5275 13.0469 20.5744C12.6031 20.715 12.1531 20.8463 11.7062 20.9807C11.4625 21.0525 11.3156 21.0057 11.1875 20.79C10.9687 20.4182 10.7531 20.0463 10.5406 19.6713C10.4344 19.4807 10.4687 19.3025 10.6406 19.1369C10.9875 18.8088 11.3344 18.4807 11.6875 18.1588C11.7937 18.0619 11.825 17.9619 11.8187 17.8182C11.8 17.5088 11.8 17.1963 11.8187 16.8838C11.8281 16.7432 11.7969 16.6432 11.7 16.5525C11.35 16.2275 11 15.8994 10.6531 15.5713C10.45 15.3775 10.4312 15.2182 10.5719 14.9744C10.7781 14.6182 10.9812 14.2619 11.1875 13.9088C11.3062 13.7057 11.4625 13.6463 11.6875 13.715C12.1437 13.8525 12.6031 13.9869 13.0562 14.1338C13.2031 14.1807 13.3187 14.1588 13.4469 14.0775C13.7062 13.9088 13.9781 13.7557 14.2531 13.6119C14.3812 13.5463 14.45 13.4588 14.4812 13.3213C14.5844 12.865 14.6906 12.4119 14.7969 11.9588C14.8625 11.6744 14.9719 11.5869 15.2656 11.5869C15.675 11.5869 16.0875 11.5869 16.4969 11.5869C16.75 11.5869 16.8687 11.6775 16.925 11.9275C16.9656 12.1088 17.0406 12.2369 17.2469 12.2432C17.2781 12.3619 17.3062 12.49 17.3344 12.615ZM13.8031 17.3432C13.8031 18.4932 14.7187 19.4182 15.8625 19.4182C17.0062 19.4182 17.9437 18.4932 17.9469 17.3588C17.95 16.215 17.0125 15.2713 15.8719 15.2713C14.7344 15.2713 13.8031 16.2025 13.8031 17.3432Z" fill="url(#paint1_linear_3716_11435)"/>
<path d="M24.9407 23.1216C24.7094 23.0529 24.5125 22.9966 24.3125 22.9341C23.7563 22.7654 23.8844 22.7873 23.4532 23.0216C22.9688 23.2873 23.0657 23.2029 22.9157 23.7716C22.8719 23.9435 22.8313 24.1154 22.7969 24.2873C22.7782 24.381 22.725 24.4154 22.6344 24.4123C22.3688 24.4091 22.1032 24.4091 21.8407 24.4123C21.7282 24.4154 21.6875 24.3623 21.6657 24.2591C21.6063 23.9841 21.5375 23.7154 21.4782 23.4404C21.4469 23.2966 21.375 23.206 21.2375 23.1435C21.0813 23.0748 20.9375 22.981 20.7969 22.8841C20.6938 22.8123 20.5938 22.7935 20.475 22.831C20.2094 22.9154 19.9375 22.9873 19.6719 23.0779C19.5407 23.1216 19.4594 23.1029 19.3938 22.9748C19.2813 22.7591 19.1563 22.5498 19.0282 22.3404C18.9688 22.2435 18.9782 22.1748 19.0657 22.0966C19.2813 21.9029 19.4907 21.6966 19.7063 21.5029C19.8032 21.4154 19.8344 21.3154 19.825 21.1841C19.8125 21.0154 19.8125 20.8404 19.825 20.6716C19.8375 20.5341 19.8 20.431 19.6969 20.3404C19.4844 20.1498 19.2813 19.9498 19.0688 19.756C18.9844 19.681 18.9719 19.6123 19.0313 19.5123C19.1625 19.2966 19.2938 19.0748 19.4125 18.8529C19.4688 18.7466 19.5438 18.7341 19.6438 18.7654C19.9219 18.8498 20.2 18.931 20.475 19.0216C20.5938 19.0591 20.6938 19.0404 20.7969 18.9716C20.9438 18.8748 21.0938 18.7779 21.2532 18.706C21.3875 18.6435 21.45 18.5529 21.4813 18.4154C21.5407 18.1404 21.6094 17.8716 21.6688 17.5966C21.6907 17.4841 21.7469 17.4404 21.8594 17.4435C22.1125 17.4498 22.3688 17.4498 22.6219 17.4435C22.7407 17.4404 22.7875 17.4935 22.8125 17.5998C22.875 17.8841 22.9344 18.1685 23.0157 18.4466C23.0438 18.5373 23.1219 18.631 23.2032 18.6873C23.3532 18.7935 23.5282 18.8716 23.6844 18.9716C23.7907 19.0404 23.8875 19.0591 24.0063 19.0185C24.2782 18.931 24.5532 18.8529 24.825 18.7685C24.9438 18.731 25.0188 18.7529 25.0782 18.8685C25.1907 19.0779 25.3094 19.2841 25.4344 19.4873C25.5032 19.5998 25.5 19.6779 25.3969 19.7685C25.1875 19.9529 24.9875 20.1529 24.7813 20.3404C24.6875 20.4248 24.65 20.5154 24.6594 20.6435C24.6719 20.831 24.6719 21.0185 24.6594 21.2029C24.65 21.3279 24.6875 21.4216 24.7782 21.506C24.9907 21.6966 25.1938 21.8998 25.4063 22.0904C25.4969 22.1716 25.5063 22.2466 25.4438 22.3466C25.3157 22.5591 25.1969 22.7779 25.0657 22.9904C25.0282 23.0498 24.975 23.0873 24.9407 23.1216ZM23.1688 21.5279C23.3875 21.5904 23.4938 21.5404 23.5469 21.3185C23.5813 21.1779 23.6032 21.031 23.6 20.8904C23.5938 20.2998 23.1813 19.7748 22.6157 19.6123C22.0375 19.4466 21.4188 19.6748 21.0875 20.1748C20.7563 20.6716 20.7844 21.3123 21.1594 21.7873C21.525 22.2498 22.1657 22.4279 22.7157 22.2185C22.925 22.1373 22.9719 22.031 22.8875 21.8216C23.0469 21.7841 23.1157 21.6654 23.1688 21.5279Z" fill="url(#paint2_linear_3716_11435)"/>
<path d="M13.8031 17.3434C13.8031 16.1996 14.7344 15.2715 15.8719 15.2715C17.0156 15.2715 17.9531 16.2152 17.9469 17.359C17.9437 18.4934 17.0031 19.4184 15.8625 19.4184C14.7187 19.4184 13.8031 18.4934 13.8031 17.3434ZM15.8687 15.7621C14.9969 15.7621 14.2844 16.4715 14.2781 17.3434C14.2719 18.2121 15 18.9434 15.8719 18.9402C16.75 18.9371 17.4625 18.2184 17.4562 17.3402C17.4531 16.4621 16.7469 15.7621 15.8687 15.7621Z" fill="url(#paint3_linear_3716_11435)"/>
<path d="M22.8906 21.8214C22.975 22.0308 22.9281 22.1402 22.7187 22.2183C22.1687 22.4277 21.5281 22.2495 21.1625 21.787C20.7906 21.312 20.7594 20.6714 21.0906 20.1745C21.4219 19.6745 22.0406 19.4464 22.6187 19.612C23.1844 19.7745 23.5937 20.2995 23.6031 20.8902C23.6062 21.0339 23.5844 21.1808 23.55 21.3183C23.4937 21.5402 23.3906 21.5902 23.1719 21.5277C23.0531 21.4308 23.0562 21.3152 23.0937 21.1777C23.2719 20.5214 22.7031 19.912 22.0531 20.0589C21.5469 20.1745 21.2406 20.6714 21.375 21.1589C21.5156 21.6683 22.0312 21.9433 22.5344 21.7683C22.6687 21.7214 22.7844 21.7089 22.8906 21.8214Z" fill="url(#paint4_linear_3716_11435)"/>
</g>
<defs>
<linearGradient id="paint0_linear_3716_11435" x1="17.9841" y1="11.0859" x2="17.9841" y2="24.8912" gradientUnits="userSpaceOnUse">
<stop stop-color="#8638FE"/>
<stop offset="1" stop-color="#A67CE7"/>
</linearGradient>
<linearGradient id="paint1_linear_3716_11435" x1="15.8704" y1="11.5869" x2="15.8704" y2="23.1307" gradientUnits="userSpaceOnUse">
<stop stop-color="#9B5AFF"/>
<stop offset="0.9999" stop-color="#EBDDFF"/>
<stop offset="1" stop-color="#A77FE6"/>
</linearGradient>
<linearGradient id="paint2_linear_3716_11435" x1="22.2371" y1="17.4434" x2="22.2371" y2="24.4125" gradientUnits="userSpaceOnUse">
<stop stop-color="#CCABFF"/>
<stop offset="1" stop-color="#F5EFFF"/>
</linearGradient>
<linearGradient id="paint3_linear_3716_11435" x1="15.875" y1="15.2715" x2="15.875" y2="19.4184" gradientUnits="userSpaceOnUse">
<stop stop-color="#8638FE"/>
<stop offset="1" stop-color="#A67CE7"/>
</linearGradient>
<linearGradient id="paint4_linear_3716_11435" x1="22.2324" y1="19.5586" x2="22.2324" y2="22.3053" gradientUnits="userSpaceOnUse">
<stop stop-color="#8638FE"/>
<stop offset="1" stop-color="#A67CE7"/>
</linearGradient>
<clipPath id="clip0_3716_11435">
<rect width="16" height="16" fill="white" transform="translate(10 10)"/>
</clipPath>
</defs>
</svg>
