<svg width="36" height="36" viewBox="0 0 36 36" fill="none" xmlns="http://www.w3.org/2000/svg">
<circle cx="18" cy="18" r="18" fill="#ECE9FF"/>
<g clip-path="url(#clip0_3716_11211)">
<path d="M20.7 18.9004V12.6004C20.7 12.1054 20.295 11.7004 19.8 11.7004H18.297L17.1 9.90039H13.5L12.303 11.7004H10.8C10.305 11.7004 9.90002 12.1054 9.90002 12.6004V18.9004C9.90002 19.3954 10.305 19.8004 10.8 19.8004H19.8C20.295 19.8004 20.7 19.3954 20.7 18.9004ZM15.3 13.0504C15.8968 13.0504 16.4691 13.2874 16.891 13.7094C17.313 14.1314 17.55 14.7037 17.55 15.3004C17.55 15.8971 17.313 16.4694 16.891 16.8914C16.4691 17.3133 15.8968 17.5504 15.3 17.5504C14.7033 17.5504 14.131 17.3133 13.709 16.8914C13.2871 16.4694 13.05 15.8971 13.05 15.3004C13.05 14.7037 13.2871 14.1314 13.709 13.7094C14.131 13.2874 14.7033 13.0504 15.3 13.0504ZM21.6 14.4004H26.1V23.8504C26.1 24.4471 25.863 25.0194 25.441 25.4414C25.0191 25.8633 24.4468 26.1004 23.85 26.1004C23.2533 26.1004 22.681 25.8633 22.259 25.4414C21.8371 25.0194 21.6 24.4471 21.6 23.8504C21.6 23.5167 21.6741 23.1872 21.8171 22.8857C21.9601 22.5842 22.1684 22.3183 22.4268 22.1072C22.6853 21.8962 22.9874 21.7452 23.3114 21.6654C23.6354 21.5855 23.9731 21.5787 24.3 21.6454V17.1004H21.6V14.4004ZM18 21.6454V20.7004H19.8V23.8504C19.8 24.4471 19.563 25.0194 19.141 25.4414C18.7191 25.8633 18.1468 26.1004 17.55 26.1004C16.9533 26.1004 16.381 25.8633 15.959 25.4414C15.5371 25.0194 15.3 24.4471 15.3 23.8504C15.3 23.5167 15.3741 23.1872 15.5171 22.8857C15.6601 22.5842 15.8684 22.3183 16.1268 22.1072C16.3853 21.8962 16.6874 21.7452 17.0114 21.6654C17.3354 21.5855 17.6731 21.5787 18 21.6454Z" fill="url(#paint0_linear_3716_11211)"/>
</g>
<defs>
<linearGradient id="paint0_linear_3716_11211" x1="18" y1="9.90039" x2="18" y2="26.1004" gradientUnits="userSpaceOnUse">
<stop stop-color="#7C66FF"/>
<stop offset="1" stop-color="#B6AAFF"/>
</linearGradient>
<clipPath id="clip0_3716_11211">
<rect width="18" height="18" fill="white" transform="translate(9 9)"/>
</clipPath>
</defs>
</svg>
