<svg xmlns="http://www.w3.org/2000/svg" xmlns:xlink="http://www.w3.org/1999/xlink" id="visual" viewBox="0 0 600 900" width="600" height="900"><rect x="0" y="0" width="600" height="900" fill="#fff"></rect><path d="M0 254L25 253.8C50 253.7 100 253.3 150 280.3C200 307.3 250 361.7 300 381.5C350 401.3 400 386.7 450 382.2C500 377.7 550 383.3 575 386.2L600 389L600 0L575 0C550 0 500 0 450 0C400 0 350 0 300 0C250 0 200 0 150 0C100 0 50 0 25 0L0 0Z" fill="#7000FE" stroke-linecap="round" stroke-linejoin="miter"></path></svg>