<svg width="39" height="24" viewBox="0 0 39 24" fill="none" xmlns="http://www.w3.org/2000/svg">
<path d="M38.9899 10.0512C37.9542 11.1903 36.9388 12.3393 35.893 13.4783C35.2838 14.1478 34.2989 14.0179 33.9537 13.2485C33.7506 12.7889 33.842 12.3693 34.177 11.9996C34.7253 11.4001 35.2838 10.7906 35.8321 10.1911C35.9844 10.0213 36.1367 9.86139 36.3093 9.67155C35.9438 9.27189 35.5884 8.88222 35.2432 8.50254C34.9284 8.16283 34.6136 7.81312 34.2989 7.47341C33.7404 6.85394 33.71 6.1845 34.2278 5.72489C34.7659 5.2453 35.4361 5.34521 36.0148 5.98467C36.7764 6.81397 37.548 7.65326 38.2994 8.49255C38.5533 8.77231 38.7665 9.09204 39 9.39179C38.9899 9.60161 38.9899 9.83142 38.9899 10.0512Z" fill="url(#paint0_linear_2780_21946)"/>
<path d="M0 9.30177C1.03567 8.14275 2.07134 6.98373 3.11717 5.8347C3.57408 5.32513 4.26453 5.28516 4.7519 5.69482C5.23928 6.11446 5.27989 6.81387 4.81282 7.33343C4.12238 8.11277 3.41162 8.87213 2.69071 9.67145C3.38116 10.4208 4.07161 11.1602 4.73159 11.9096C4.90421 12.1094 5.05651 12.3592 5.11743 12.619C5.22912 13.0986 4.98544 13.5482 4.54883 13.778C4.11222 14.0078 3.55377 13.9578 3.2187 13.5881C2.15257 12.4291 1.1169 11.2501 0.0609218 10.0811C0.0507682 10.0611 0.0203073 10.0611 0 10.0511C0 9.80134 0 9.55156 0 9.30177Z" fill="url(#paint1_linear_2780_21946)"/>
<path d="M19.4644 11.7501C18.0733 10.2014 16.6924 8.66267 15.3115 7.13397C15.1897 6.99408 15.0577 6.8542 14.9358 6.71432C14.3368 6.06487 13.6362 6.06487 13.0473 6.71432C11.707 8.18308 10.3769 9.66183 9.04673 11.1306C8.46797 11.77 7.88921 12.4095 7.25969 13.0989C7.24953 12.9291 7.23938 12.8291 7.23938 12.7192C7.23938 8.8625 7.23938 5.00577 7.23938 1.14903C7.23938 0.309738 7.55414 0 8.40705 0C15.7989 0 23.2009 0 30.5927 0C31.4456 0 31.7503 0.309738 31.7503 1.15902C31.7503 5.01576 31.7503 8.8725 31.7503 12.7292C31.7503 12.8391 31.7503 12.9391 31.7503 13.1389C30.8263 12.1297 29.9734 11.1905 29.1103 10.2513C28.0442 9.08232 26.978 7.91331 25.9018 6.7443C25.2722 6.05488 24.5919 6.06487 23.9624 6.76428C22.5511 8.33295 21.1397 9.90163 19.7284 11.4703C19.6471 11.5502 19.5557 11.6402 19.4644 11.7501Z" fill="url(#paint2_linear_2780_21946)"/>
<path d="M23.2112 19.3438C21.6374 19.3438 20.1549 19.3438 18.6725 19.3438C15.2507 19.3438 11.8188 19.3438 8.39701 19.3438C7.57457 19.3438 7.2395 19.014 7.2395 18.2147C7.2395 17.6452 7.1075 17.0157 7.30042 16.5062C7.49334 16.0066 8.03148 15.6269 8.41732 15.1973C10.2653 13.159 12.1132 11.1107 13.9917 9.04248C17.0479 12.4696 20.1042 15.8767 23.2112 19.3438Z" fill="url(#paint3_linear_2780_21946)"/>
<path d="M20.9877 13.4488C22.3178 11.97 23.6175 10.5212 24.9476 9.04248C25.5974 9.75188 26.2473 10.4513 26.8869 11.1607C28.4303 12.8493 29.9635 14.5378 31.517 16.2264C31.6896 16.4162 31.7708 16.6061 31.7607 16.8559C31.7404 17.3555 31.7607 17.855 31.7505 18.3546C31.7404 18.9641 31.3748 19.3338 30.7555 19.3438C29.334 19.3538 27.9124 19.3538 26.4909 19.3438C26.3691 19.3438 26.2066 19.2838 26.1356 19.2039C24.4196 17.2955 22.7138 15.3871 20.9877 13.4488Z" fill="url(#paint4_linear_2780_21946)"/>
<path d="M10.3566 24.0002C9.72709 24.0002 9.2194 23.5106 9.20925 22.8911C9.1991 22.2617 9.72709 21.7421 10.3668 21.7521C10.9861 21.7621 11.504 22.2717 11.4938 22.8811C11.4938 23.5106 10.9861 24.0002 10.3566 24.0002Z" fill="url(#paint5_linear_2780_21946)"/>
<path d="M14.9158 24.0002C14.2863 24.0002 13.7887 23.5106 13.7786 22.8811C13.7684 22.2717 14.2863 21.7621 14.9056 21.7521C15.5453 21.7421 16.0733 22.2617 16.0632 22.8911C16.053 23.5106 15.5453 24.0002 14.9158 24.0002Z" fill="url(#paint6_linear_2780_21946)"/>
<path d="M28.6434 23.9997C28.0138 23.9997 27.5062 23.5101 27.496 22.9007C27.4858 22.2912 27.9935 21.7716 28.6129 21.7616C29.2526 21.7516 29.7806 22.2612 29.7806 22.8907C29.7704 23.5101 29.2729 23.9997 28.6434 23.9997Z" fill="url(#paint7_linear_2780_21946)"/>
<path d="M19.5049 23.9997C18.8754 23.9997 18.3677 23.5201 18.3474 22.9007C18.3373 22.2712 18.8653 21.7516 19.4948 21.7616C20.1142 21.7716 20.632 22.2712 20.632 22.8807C20.632 23.5001 20.1345 23.9997 19.5049 23.9997Z" fill="url(#paint8_linear_2780_21946)"/>
<path d="M24.0643 23.9997C23.4347 23.9997 22.9271 23.5101 22.9169 22.8907C22.9067 22.2812 23.4144 21.7716 24.044 21.7616C24.6836 21.7516 25.2116 22.2712 25.2015 22.8907C25.2015 23.5101 24.6938 23.9997 24.0643 23.9997Z" fill="url(#paint9_linear_2780_21946)"/>
<defs>
<linearGradient id="paint0_linear_2780_21946" x1="36.4232" y1="5.42432" x2="36.4232" y2="13.9114" gradientUnits="userSpaceOnUse">
<stop stop-color="#9FBDFF"/>
<stop offset="1" stop-color="#3E79FF"/>
</linearGradient>
<linearGradient id="paint1_linear_2780_21946" x1="2.57221" y1="5.41675" x2="2.57221" y2="13.9169" gradientUnits="userSpaceOnUse">
<stop stop-color="#9FBDFF"/>
<stop offset="1" stop-color="#3E79FF"/>
</linearGradient>
<linearGradient id="paint2_linear_2780_21946" x1="19.4948" y1="0" x2="19.4948" y2="13.1389" gradientUnits="userSpaceOnUse">
<stop stop-color="#9FBDFF"/>
<stop offset="1" stop-color="#3E79FF"/>
</linearGradient>
<linearGradient id="paint3_linear_2780_21946" x1="15.2033" y1="9.04248" x2="15.2033" y2="19.3438" gradientUnits="userSpaceOnUse">
<stop stop-color="#9FBDFF"/>
<stop offset="1" stop-color="#3E79FF"/>
</linearGradient>
<linearGradient id="paint4_linear_2780_21946" x1="26.3746" y1="9.04248" x2="26.3746" y2="19.3513" gradientUnits="userSpaceOnUse">
<stop stop-color="#9FBDFF"/>
<stop offset="1" stop-color="#3E79FF"/>
</linearGradient>
<linearGradient id="paint5_linear_2780_21946" x1="10.3515" y1="21.752" x2="10.3515" y2="24.0002" gradientUnits="userSpaceOnUse">
<stop stop-color="#9FBDFF"/>
<stop offset="1" stop-color="#3E79FF"/>
</linearGradient>
<linearGradient id="paint6_linear_2780_21946" x1="14.9209" y1="21.752" x2="14.9209" y2="24.0002" gradientUnits="userSpaceOnUse">
<stop stop-color="#9FBDFF"/>
<stop offset="1" stop-color="#3E79FF"/>
</linearGradient>
<linearGradient id="paint7_linear_2780_21946" x1="28.6382" y1="21.7615" x2="28.6382" y2="23.9997" gradientUnits="userSpaceOnUse">
<stop stop-color="#9FBDFF"/>
<stop offset="1" stop-color="#3E79FF"/>
</linearGradient>
<linearGradient id="paint8_linear_2780_21946" x1="19.4896" y1="21.7615" x2="19.4896" y2="23.9997" gradientUnits="userSpaceOnUse">
<stop stop-color="#9FBDFF"/>
<stop offset="1" stop-color="#3E79FF"/>
</linearGradient>
<linearGradient id="paint9_linear_2780_21946" x1="24.0592" y1="21.7615" x2="24.0592" y2="23.9997" gradientUnits="userSpaceOnUse">
<stop stop-color="#9FBDFF"/>
<stop offset="1" stop-color="#3E79FF"/>
</linearGradient>
</defs>
</svg>
